<svg xmlns="http://www.w3.org/2000/svg" width="186" height="120" fill="none" viewBox="0 0 186 120"><g clip-path="url(#clip0)"><path fill="#1F59BB" d="M89.0061 120C136.431 120 174.876 117.797 174.876 115.08C174.876 112.362 136.431 110.159 89.0061 110.159C41.5816 110.159 3.13647 112.362 3.13647 115.08C3.13647 117.797 41.5816 120 89.0061 120Z" opacity=".1"/><g opacity=".2"><path fill="#3F3D56" d="M159.876 115.3C159.798 115.449 159.706 115.591 159.602 115.724C158.688 115.079 157.758 114.448 156.813 113.83C156.832 113.791 156.853 113.749 156.875 113.71C157.094 113.286 157.423 112.929 157.827 112.675C158.349 112.357 158.938 112.281 159.414 112.538C159.891 112.795 160.17 113.322 160.199 113.932C160.215 114.409 160.104 114.881 159.876 115.3Z" opacity=".2"/><path fill="#3F3D56" d="M161.154 112.91C161.729 111.825 161.523 110.589 160.694 110.15C159.866 109.711 158.728 110.235 158.153 111.32C157.578 112.405 157.784 113.641 158.613 114.08C159.441 114.519 160.579 113.995 161.154 112.91Z" opacity=".2"/><path fill="#3F3D56" d="M162.426 110.508C163 109.422 162.795 108.187 161.966 107.748C161.137 107.309 159.999 107.832 159.424 108.918C158.849 110.003 159.055 111.239 159.884 111.678C160.713 112.117 161.851 111.593 162.426 110.508Z" opacity=".2"/><path fill="#3F3D56" d="M163.699 108.105C164.274 107.019 164.068 105.784 163.24 105.345C162.411 104.906 161.273 105.43 160.698 106.515C160.123 107.6 160.329 108.836 161.158 109.275C161.987 109.714 163.125 109.19 163.699 108.105Z" opacity=".2"/><path fill="#3F3D56" d="M164.971 105.701C165.546 104.616 165.34 103.38 164.512 102.941C163.683 102.502 162.545 103.026 161.97 104.111C161.395 105.196 161.601 106.432 162.43 106.871C163.259 107.31 164.397 106.786 164.971 105.701Z" opacity=".2"/><path fill="#1F59BB" d="M166.551 85.4759C166.484 85.1088 166.443 84.7376 166.427 84.3648L170.712 85.8061L166.427 83.5839C166.489 82.4733 166.778 81.3871 167.276 80.3921C167.773 79.3972 168.469 78.5146 169.32 77.7984L173.465 83.8077L170.241 77.1302C171.188 76.5385 172.247 76.1481 173.352 75.9833C174.456 75.8185 175.583 75.8827 176.662 76.1721C177.74 76.4614 178.748 76.9696 179.622 77.6651C180.496 78.3606 181.217 79.2285 181.741 80.2148C182.265 81.2011 182.58 82.2846 182.667 83.3981C182.755 84.5115 182.612 85.6309 182.248 86.6868C181.884 87.7426 181.306 88.7122 180.551 89.5352C179.796 90.3583 178.88 91.0172 177.86 91.4709C177.965 92.0466 178.007 92.632 177.987 93.2169L171.455 93.1661L177.887 94.2248C177.669 95.5611 177.123 96.8222 176.296 97.8941C175.469 98.966 174.388 99.815 173.15 100.364C173.423 101.867 173.268 103.417 172.702 104.836C172.135 106.254 171.181 107.485 169.949 108.387C168.716 109.289 167.254 109.826 165.73 109.937C164.207 110.047 162.683 109.727 161.333 109.012C159.983 108.297 158.861 107.216 158.097 105.894C157.332 104.572 156.954 103.061 157.008 101.534C157.061 100.008 157.543 98.5268 158.398 97.2611C159.254 95.9955 160.448 94.996 161.845 94.3772C161.52 92.5822 161.808 90.7303 162.662 89.1185C163.516 87.5067 164.887 86.2284 166.554 85.4886L166.551 85.4759Z" opacity=".2"/><path fill="#000" d="M177.041 96.7263C176.19 98.3412 174.817 99.621 173.147 100.358C173.42 101.861 173.265 103.41 172.699 104.829C172.132 106.248 171.178 107.479 169.945 108.381C168.713 109.283 167.251 109.82 165.727 109.93C164.204 110.041 162.68 109.72 161.33 109.005C159.98 108.29 158.858 107.21 158.093 105.888C157.328 104.566 156.951 103.055 157.004 101.528C157.058 100.001 157.54 98.5205 158.395 97.2548C159.25 95.9892 160.445 94.9897 161.841 94.3708C161.525 92.636 177.469 95.92 177.041 96.7263Z" opacity=".1"/></g><g opacity=".2"><path fill="#3F3D56" d="M154.777 67.2911C154.678 67.5459 154.558 67.7922 154.419 68.0276C152.821 67.1747 151.201 66.3462 149.561 65.5419C149.583 65.4737 149.608 65.4023 149.635 65.334C149.901 64.6106 150.356 63.9715 150.953 63.4833C151.726 62.8643 152.658 62.6309 153.492 62.9468C154.327 63.2627 154.861 64.0579 155.027 65.0277C155.148 65.791 155.061 66.5726 154.777 67.2911Z" opacity=".2"/><path fill="#3F3D56" d="M156.345 63.1829C157.053 61.324 156.475 59.3789 155.056 58.8385C153.636 58.298 151.911 59.3668 151.204 61.2257C150.496 63.0846 151.073 65.0297 152.493 65.5701C153.913 66.1106 155.637 65.0418 156.345 63.1829Z" opacity=".2"/><path fill="#3F3D56" d="M157.912 59.0699C158.62 57.211 158.043 55.2659 156.623 54.7254C155.203 54.185 153.478 55.2538 152.771 57.1127C152.063 58.9716 152.64 60.9166 154.06 61.4571C155.48 61.9976 157.205 60.9287 157.912 59.0699Z" opacity=".2"/><path fill="#3F3D56" d="M159.477 54.9549C160.185 53.096 159.607 51.1509 158.187 50.6105C156.768 50.07 155.043 51.1388 154.335 52.9977C153.628 54.8566 154.205 56.8017 155.625 57.3421C157.045 57.8826 158.769 56.8138 159.477 54.9549Z" opacity=".2"/><path fill="#3F3D56" d="M161.044 50.8435C161.751 48.9846 161.174 47.0396 159.754 46.4991C158.335 45.9587 156.61 47.0275 155.902 48.8864C155.195 50.7453 155.772 52.6903 157.192 53.2308C158.612 53.7712 160.336 52.7024 161.044 50.8435Z" opacity=".2"/><path fill="#1F59BB" d="M159.557 18.0469C159.376 17.4658 159.236 16.8729 159.136 16.2724L166.314 17.7343L158.987 15.0074C158.867 13.2168 159.113 11.4205 159.711 9.72838C160.309 8.03629 161.246 6.484 162.465 5.16651L170.331 13.9693L163.824 3.88561C165.228 2.75135 166.851 1.91783 168.591 1.43678C170.331 0.955738 172.151 0.837431 173.938 1.08921C175.726 1.34098 177.443 1.95746 178.982 2.90039C180.522 3.84332 181.851 5.09257 182.887 6.57062C183.924 8.04867 184.645 9.72396 185.007 11.4925C185.37 13.2611 185.364 15.0852 184.992 16.8517C184.62 18.6181 183.888 20.2892 182.843 21.7611C181.798 23.2331 180.462 24.4746 178.917 25.4086C179.199 26.3127 179.383 27.2444 179.466 28.1878L168.963 29.4068L179.507 29.8274C179.425 32.018 178.797 34.1533 177.682 36.0404C176.566 37.9274 174.998 39.5066 173.118 40.6349C173.854 42.9945 173.912 45.5135 173.284 47.9042C172.656 50.2948 171.368 52.4606 169.568 54.154C167.768 55.8474 165.527 57.0002 163.103 57.4806C160.678 57.961 158.167 57.7496 155.857 56.8707C153.547 55.9917 151.531 54.4805 150.039 52.5099C148.547 50.5393 147.639 48.1888 147.42 45.7268C147.201 43.2649 147.678 40.7909 148.798 38.5876C149.918 36.3843 151.636 34.5405 153.754 33.267C152.873 30.4466 152.965 27.4118 154.016 24.6503C155.068 21.8887 157.017 19.5608 159.551 18.0406L159.557 18.0469Z" opacity=".2"/><path fill="#000" d="M178.652 34.0304C177.604 36.7924 175.654 39.1197 173.118 40.6349C173.854 42.9945 173.912 45.5135 173.284 47.9041C172.656 50.2947 171.368 52.4605 169.568 54.1539C167.768 55.8474 165.527 57.0002 163.103 57.4806C160.678 57.961 158.167 57.7496 155.857 56.8706C153.547 55.9916 151.531 54.4805 150.039 52.5099C148.547 50.5393 147.639 48.1887 147.42 45.7268C147.201 43.2648 147.678 40.7908 148.798 38.5875C149.918 36.3842 151.636 34.5404 153.754 33.2669C152.908 30.5496 179.179 32.6495 178.652 34.0304Z" opacity=".1"/></g><g opacity=".2"><path fill="#3F3D56" d="M28.3129 80.9747C28.3933 81.2897 28.4994 81.5976 28.6304 81.8953C30.6409 81.1249 32.6741 80.3842 34.7301 79.6731C34.7127 79.589 34.6952 79.5017 34.673 79.416C34.4659 78.5224 34.0237 77.7003 33.3921 77.0351C32.5699 76.1907 31.5048 75.778 30.4811 76.0288C29.4573 76.2796 28.7034 77.1399 28.3621 78.2509C28.1019 79.138 28.0849 80.0788 28.3129 80.9747Z" opacity=".2"/><path fill="#3F3D56" d="M31.2735 79.2696C33.0287 78.8411 33.9967 76.6311 33.4358 74.3335C32.8748 72.0359 30.9973 70.5207 29.2422 70.9492C27.487 71.3777 26.5189 73.5877 27.0799 75.8853C27.6408 78.1829 29.5184 79.6981 31.2735 79.2696Z" opacity=".2"/><path fill="#3F3D56" d="M30.0318 74.187C31.787 73.7585 32.7551 71.5486 32.1941 69.251C31.6332 66.9534 29.7556 65.4382 28.0005 65.8667C26.2453 66.2952 25.2772 68.5052 25.8382 70.8028C26.3991 73.1003 28.2767 74.6155 30.0318 74.187Z" opacity=".2"/><path fill="#3F3D56" d="M28.7913 69.1025C30.5465 68.674 31.5146 66.464 30.9536 64.1664C30.3927 61.8688 28.5151 60.3536 26.76 60.7821C25.0049 61.2106 24.0368 63.4206 24.5977 65.7182C25.1587 68.0158 27.0362 69.531 28.7913 69.1025Z" opacity=".2"/><path fill="#3F3D56" d="M27.5494 64.0168C29.3045 63.5883 30.2726 61.3783 29.7117 59.0807C29.1507 56.7831 27.2732 55.2679 25.518 55.6964C23.7629 56.1249 22.7948 58.3349 23.3558 60.6325C23.9167 62.9301 25.7943 64.4453 27.5494 64.0168Z" opacity=".2"/><path fill="#1F59BB" d="M29.9321 22.1626C30.232 21.5039 30.4855 20.825 30.6908 20.131L22.007 20.7944L31.0543 18.658C31.4613 16.5619 31.436 14.4047 30.9799 12.3187C30.5238 10.2327 29.6466 8.26178 28.402 6.52675L17.8183 15.7708L26.9878 4.83158C25.4987 3.28096 23.7065 2.05335 21.7227 1.2251C19.7388 0.396844 17.6058 -0.0143186 15.4562 0.0171857C13.3066 0.0486899 11.1865 0.522187 9.22781 1.40822C7.26909 2.29425 5.51364 3.57387 4.07068 5.16745C2.62772 6.76104 1.52812 8.63451 0.840284 10.6713C0.152447 12.7081 -0.108909 14.8646 0.0724749 17.0068C0.253859 19.1489 0.874103 21.2308 1.89462 23.1229C2.91514 25.0151 4.3141 26.677 6.00446 28.0053C5.53823 29.031 5.1833 30.1037 4.94577 31.2051L17.1596 34.1907L4.65531 33.132C4.42994 35.7284 4.85511 38.3399 5.89239 40.7307C6.92967 43.1214 8.54636 45.216 10.5963 46.8252C9.37885 49.5013 8.93893 52.4661 9.32689 55.3805C9.71484 58.2949 10.915 61.0413 12.7902 63.3058C14.6654 65.5703 17.1399 67.2615 19.9308 68.186C22.7218 69.1105 25.7166 69.231 28.5729 68.5338C31.4291 67.8366 34.0315 66.3498 36.0827 64.2434C38.1338 62.1369 39.5508 59.4958 40.1717 56.6221C40.7927 53.7483 40.5925 50.7578 39.594 47.9924C38.5956 45.227 36.8391 42.7984 34.5255 40.9841C35.9802 37.7852 36.3172 34.1901 35.4824 30.7765C34.6476 27.3629 32.6894 24.3292 29.9226 22.1626H29.9321Z" opacity=".2"/><path fill="#000" d="M5.04094 38.208C5.86905 41.6242 7.82659 44.6606 10.5963 46.8251C9.37878 49.5013 8.93887 52.466 9.32682 55.3804C9.71477 58.2948 10.9149 61.0412 12.7901 63.3057C14.6653 65.5702 17.1398 67.2614 19.9308 68.1859C22.7218 69.1104 25.7165 69.231 28.5728 68.5338C31.429 67.8366 34.0315 66.3498 36.0826 64.2433C38.1337 62.1369 39.5507 59.4958 40.1717 56.622C40.7926 53.7482 40.5924 50.7577 39.594 47.9923C38.5955 45.2269 36.8391 42.7983 34.5255 40.9841C35.935 37.8969 4.62667 36.508 5.04094 38.208Z" opacity=".1"/></g><path fill="url(#paint0_linear)" d="M167.66 18.0485H13.8979C13.7176 18.0487 13.5392 18.0844 13.3728 18.1536C13.2064 18.2228 13.0553 18.3242 12.9281 18.4518C12.8008 18.5795 12.7 18.731 12.6314 18.8976C12.5628 19.0642 12.5277 19.2428 12.5281 19.423V113.527C12.5275 113.891 12.5984 114.25 12.7368 114.586C12.8753 114.922 13.0786 115.228 13.335 115.485C13.5915 115.742 13.8961 115.947 14.2315 116.086C14.5669 116.226 14.9266 116.298 15.2899 116.299H166.268C166.631 116.298 166.991 116.226 167.326 116.086C167.662 115.947 167.966 115.742 168.223 115.485C168.479 115.228 168.683 114.922 168.821 114.586C168.96 114.25 169.03 113.891 169.03 113.527V19.423C169.03 19.0592 168.886 18.71 168.629 18.4523C168.373 18.1945 168.024 18.0493 167.66 18.0485Z"/><path fill="#fff" d="M168.408 23.8911V112.973C168.407 113.699 168.119 114.395 167.605 114.909C167.092 115.422 166.396 115.711 165.67 115.711H15.9154C15.1888 115.711 14.492 115.423 13.9782 114.909C13.4644 114.395 13.1758 113.698 13.1758 112.972V23.8911H168.408Z"/><path fill="#EDEDF4" d="M168.408 19.9325V23.8911H13.1758V19.9325C13.1758 19.5722 13.3189 19.2266 13.5737 18.9718C13.8285 18.717 14.1741 18.5739 14.5345 18.5739H167.049C167.409 18.5739 167.755 18.717 168.01 18.9718C168.265 19.2266 168.408 19.5722 168.408 19.9325Z"/><path fill="#FA5959" d="M15.6359 21.8277C15.9865 21.8277 16.2708 21.5434 16.2708 21.1928C16.2708 20.8421 15.9865 20.5579 15.6359 20.5579C15.2852 20.5579 15.001 20.8421 15.001 21.1928C15.001 21.5434 15.2852 21.8277 15.6359 21.8277Z" opacity=".8"/><path fill="#FED253" d="M17.382 21.8277C17.7326 21.8277 18.0169 21.5434 18.0169 21.1928C18.0169 20.8421 17.7326 20.5579 17.382 20.5579C17.0313 20.5579 16.7471 20.8421 16.7471 21.1928C16.7471 21.5434 17.0313 21.8277 17.382 21.8277Z" opacity=".8"/><path fill="#8CCF4D" d="M19.1278 21.8277C19.4785 21.8277 19.7627 21.5434 19.7627 21.1928C19.7627 20.8421 19.4785 20.5579 19.1278 20.5579C18.7772 20.5579 18.4929 20.8421 18.4929 21.1928C18.4929 21.5434 18.7772 21.8277 19.1278 21.8277Z" opacity=".8"/><path fill="url(#paint1_linear)" d="M99.8262 16.3041V15.6692H98.8738V16.3041H99.8262Z"/><path fill="#EDEDF4" d="M63.796 31.6987H48.876V33.286H63.796V31.6987Z"/><path fill="#EDEDF4" d="M132.682 36.3018H48.876V37.889H132.682V36.3018Z"/><path fill="#EDEDF4" d="M132.682 40.9048H48.876V42.492H132.682V40.9048Z"/><path fill="#EDEDF4" d="M132.682 45.5077H48.876V47.0949H132.682V45.5077Z"/><path fill="#EDEDF4" d="M132.682 50.1107H48.876V51.698H132.682V50.1107Z"/><path fill="#EDEDF4" d="M116.624 58.8914H64.8799V98.8898H116.624V58.8914Z"/><path fill="url(#paint2_linear)" d="M99.8309 71.2829C99.7642 71.2829 99.6976 71.2924 99.6293 71.294C99.6518 71.2016 99.6593 71.1062 99.6515 71.0115C99.632 70.6112 99.5236 70.2202 99.3341 69.8671C99.2174 69.6589 99.0858 69.4595 98.9404 69.2703C98.5087 68.6735 98.1087 68.064 97.6341 67.5005C97.4283 67.2815 97.2585 67.0314 97.131 66.7593C97.0831 66.6124 97.0258 66.4687 96.9596 66.3291C96.8678 66.1865 96.7386 66.0718 96.586 65.9976C96.4334 65.9234 96.2634 65.8926 96.0945 65.9085C95.7549 65.9485 95.4425 66.1138 95.2184 66.372C95.085 66.5148 94.9755 66.7355 95.0866 66.8974C95.1977 67.0593 95.439 67.0799 95.4533 67.2577C95.4533 67.3529 95.4533 67.5084 95.3565 67.5386C95.1846 67.584 95.0207 67.6558 94.8708 67.7513C94.7966 67.8004 94.7349 67.8662 94.6905 67.9433C94.6462 68.0205 94.6204 68.1069 94.6152 68.1957C94.8898 68.237 95.12 68.0068 95.3692 67.8783C95.6855 67.7434 96.0406 67.7304 96.3659 67.8418C96.491 67.875 96.6077 67.934 96.7088 68.0148C96.7978 68.1022 96.8728 68.2028 96.931 68.3132C97.2367 68.7552 97.4256 69.2673 97.4802 69.802L97.6199 70.694C97.4133 70.7105 97.2077 70.7381 97.004 70.7766C96.4558 70.8574 95.8967 70.8195 95.3644 70.6655C94.8089 70.5067 94.2533 70.2179 93.6803 70.348C93.4121 70.4067 93.1677 70.5559 92.8962 70.5988C92.6841 70.6193 92.4702 70.608 92.2614 70.5655L91.8249 70.4956C91.8106 70.4591 91.7995 70.421 91.7884 70.3829C91.6981 70.0646 91.6564 69.7344 91.6645 69.4036C91.9492 69.3883 92.2257 69.3036 92.47 69.1569C92.7144 69.0101 92.919 68.8058 93.0662 68.5617C93.2134 68.3176 93.2986 68.0412 93.3143 67.7566C93.33 67.472 93.2759 67.1879 93.1566 66.9291C93.3919 66.7972 93.5868 66.6034 93.72 66.3688L93.6089 66.3482L93.7137 66.1894C93.689 66.1744 93.6682 66.1538 93.6528 66.1294C93.6374 66.1049 93.6279 66.0773 93.6249 66.0485C93.622 66.0198 93.6258 65.9908 93.6359 65.9637C93.6461 65.9367 93.6624 65.9123 93.6835 65.8926C93.591 65.8447 93.4876 65.8217 93.3835 65.826C93.4169 65.7641 93.3629 65.6879 93.2978 65.6672C93.23 65.6535 93.1605 65.6492 93.0915 65.6545C92.9902 65.6468 92.8907 65.6238 92.7962 65.5863C92.1185 65.353 91.3836 65.1482 90.6932 65.3435C90.3888 65.4384 90.1043 65.5879 89.8535 65.7847C89.609 65.922 89.4264 66.1477 89.3431 66.4154C89.2599 66.6832 89.2824 66.9726 89.4059 67.2243C89.5107 67.4844 89.5857 67.7554 89.6297 68.0322C89.6394 68.2907 89.61 68.5492 89.5424 68.7989C89.6935 68.8449 89.8479 68.8794 90.0043 68.902C89.9161 69.2429 89.7601 69.5625 89.5456 69.8417C89.4473 69.9652 89.3413 70.0824 89.2281 70.1925H89.2091C88.8944 70.2513 88.5763 70.2906 88.2568 70.3099C87.9203 70.3099 87.5901 70.1829 87.2552 70.2067C87.0568 70.2291 86.8614 70.2733 86.6727 70.3385C85.8015 70.5939 84.8964 70.7148 83.9887 70.6972L83.8792 70.7083L83.9807 70.0607C84.0353 69.5261 84.2242 69.0139 84.5299 68.5719C84.5881 68.4615 84.6631 68.3609 84.7521 68.2735C84.8538 68.1926 84.971 68.1337 85.0966 68.1005C85.4214 67.9891 85.776 68.0021 86.0918 68.137C86.341 68.2592 86.5679 68.4894 86.8473 68.4544C86.8416 68.3655 86.8154 68.2792 86.7708 68.2021C86.7262 68.125 86.6644 68.0593 86.5902 68.01C86.4402 67.9145 86.2763 67.8428 86.1045 67.7973C86.0124 67.7672 85.9997 67.6116 86.0076 67.5164C86.0219 67.3386 86.2743 67.3005 86.3743 67.1545C86.4743 67.0085 86.3743 66.7736 86.2426 66.6291C86.018 66.3716 85.7057 66.207 85.3664 66.1672C85.1977 66.1512 85.0279 66.1821 84.8756 66.2563C84.7233 66.3305 84.5943 66.4452 84.5029 66.5878C84.4355 66.7271 84.3777 66.8708 84.3299 67.018C84.2024 67.2901 84.0326 67.5403 83.8268 67.7592C83.3506 68.3227 82.9522 68.9322 82.5205 69.529C82.376 69.7183 82.2445 69.9172 82.1268 70.1242C81.9383 70.4783 81.8299 70.8696 81.8094 71.2702C81.8016 71.3655 81.8091 71.4614 81.8316 71.5543C81.821 71.5767 81.8151 71.601 81.8142 71.6257C81.8191 71.6691 81.8325 71.7111 81.8538 71.7492C81.875 71.7874 81.9036 71.8209 81.938 71.848C82.1808 72.0924 82.4363 72.3448 82.7633 72.4495C82.9667 72.4977 83.173 72.5332 83.3808 72.5559C83.8823 72.6463 84.3442 72.9368 84.8537 72.9352C85.2045 72.9352 85.5505 72.7955 85.8965 72.8447C86.3727 72.9098 86.7155 73.2971 87.0076 73.6733C87.2556 73.9669 87.4419 74.3075 87.5552 74.6748C87.6679 75.1177 87.598 75.6161 87.8345 76.0065C87.8942 76.0862 87.9403 76.1753 87.971 76.27C87.976 76.4198 87.9426 76.5684 87.8742 76.7017C87.6742 77.316 88.1123 77.9715 88.0663 78.6064C88.0441 78.9159 87.9076 79.208 87.8933 79.5175C87.8695 79.9159 88.0314 80.3619 87.8092 80.6936C87.9441 80.6238 88.0806 80.5619 88.2202 80.5063C87.5536 82.4602 86.9505 84.4744 86.9965 86.5283C87.0314 87.86 87.3139 89.3266 86.5489 90.4202C86.4402 90.5506 86.3538 90.6981 86.2933 90.8567C86.233 91.071 86.2933 91.298 86.333 91.517C86.4743 92.4694 85.96 93.4074 85.9251 94.374C85.9211 94.6719 85.9402 94.9696 85.9822 95.2645L86.1695 96.8739C85.9808 96.915 85.8052 97.0023 85.6584 97.1279C85.4616 97.2866 85.2886 97.5469 85.3807 97.785C85.4553 97.9771 85.6743 98.0691 85.8759 98.1168C86.0826 98.1399 86.2802 98.2147 86.4505 98.3342C86.5049 98.3945 86.5627 98.4517 86.6235 98.5056C86.7408 98.5692 86.8752 98.5942 87.0076 98.5771C87.2504 98.5675 87.4838 98.5469 87.7314 98.5136C87.7828 98.5114 87.8327 98.4955 87.8758 98.4675C87.9048 98.4355 87.9269 98.3978 87.9409 98.3568C87.9548 98.3159 87.9602 98.2726 87.9568 98.2294C87.9745 97.9878 87.9644 97.745 87.9266 97.5057C87.9171 97.4596 87.9044 97.4152 87.8917 97.3692C87.975 97.1652 88.0342 96.9521 88.0679 96.7343C88.1171 96.4168 88.125 96.0851 88.1456 95.7597C88.1933 94.9312 88.3044 94.109 88.4313 93.2868L88.5901 92.2297C88.6393 91.8821 88.6901 91.5345 88.7488 91.1869C89.0431 89.3041 89.5009 87.4506 90.117 85.6474C90.2519 85.2617 90.4821 84.8093 90.89 84.7982L91.1328 85.2744C91.4503 85.8712 91.6439 86.5331 91.8852 87.16C92.2026 87.9838 92.0947 88.9457 92.5201 89.7203C92.5899 89.8488 92.6788 89.971 92.7312 90.106C92.8064 90.3136 92.8503 90.5314 92.8613 90.752L93.1423 93.609C93.2692 94.8931 93.4057 96.2121 93.9819 97.366C94.0181 97.4404 94.0606 97.5115 94.1089 97.5787C94.0912 97.7708 94.0885 97.9639 94.101 98.1564C94.0921 98.1905 94.0913 98.2261 94.0985 98.2605C94.1058 98.2949 94.1209 98.3272 94.1428 98.3547C94.1646 98.3823 94.1926 98.4044 94.2245 98.4193C94.2563 98.4341 94.2912 98.4414 94.3263 98.4406C94.566 98.4723 94.8025 98.4929 95.0485 98.5025C95.1809 98.5196 95.3153 98.4946 95.4326 98.431C95.4947 98.378 95.5531 98.3207 95.6072 98.2596C95.7769 98.1401 95.974 98.0653 96.1802 98.0422C96.3818 97.9961 96.6009 97.9041 96.6755 97.7104C96.7691 97.4723 96.5945 97.2136 96.3977 97.0533C96.2382 96.9139 96.0421 96.8231 95.8326 96.7914C95.7464 96.7964 95.6599 96.7894 95.5755 96.7708C95.5951 96.6662 95.6015 96.5595 95.5945 96.4533C95.5742 96.3285 95.5689 96.2017 95.5787 96.0756C95.6111 95.9482 95.6546 95.8239 95.7088 95.7042C95.8914 95.1423 95.5025 94.5709 95.366 93.9963C95.1835 93.2312 95.4549 92.4297 95.4057 91.644C95.3295 90.4107 94.4692 89.2536 94.6978 88.0394C94.8803 87.068 94.7247 86.0696 94.5517 85.0966L93.9168 81.4761C93.8722 81.1823 93.795 80.8943 93.6867 80.6175C93.8045 80.597 93.9203 80.5662 94.0327 80.5254C94.1914 80.1381 94.1644 79.7111 94.1168 79.2953C94.0692 78.8794 93.9581 78.4731 93.9025 78.0604C93.8544 77.7286 93.8269 77.3941 93.82 77.0589C93.8027 76.7281 93.8262 76.3966 93.8899 76.0716C93.9628 75.7863 94.0622 75.5084 94.1867 75.2415C94.4938 74.4708 94.8655 73.7275 95.2977 73.0193C95.9501 72.9685 96.5818 72.913 97.2326 72.8606C97.3886 72.8535 97.5436 72.8328 97.696 72.7987C97.8903 72.7318 98.0879 72.6751 98.2881 72.6289C98.3628 72.625 98.4365 72.6106 98.5071 72.586C98.65 72.5209 98.7373 72.3384 98.8944 72.3321C98.9534 72.3399 99.0132 72.3399 99.0722 72.3321C99.142 72.3098 99.1769 72.2337 99.2309 72.1733C99.3293 72.0638 99.4896 72.0416 99.6182 71.9702C99.7284 71.8986 99.8101 71.7906 99.849 71.665C99.8878 71.5395 99.8814 71.4042 99.8309 71.2829Z"/><path fill="#A1616A" d="M91.5741 69.5465C92.5384 69.5465 93.3201 68.7648 93.3201 67.8005C93.3201 66.8363 92.5384 66.0546 91.5741 66.0546C90.6098 66.0546 89.8281 66.8363 89.8281 67.8005C89.8281 68.7648 90.6098 69.5465 91.5741 69.5465Z"/><path fill="#A1616A" d="M89.5583 69.9734C89.38 70.1928 89.1806 70.3943 88.9631 70.575C89.9889 71.1865 91.208 71.3872 92.3757 71.1369C92.3328 71.0178 92.1773 71.0004 92.0678 70.94C91.9255 70.8391 91.8286 70.6863 91.798 70.5147C91.6803 70.0963 91.6458 69.659 91.6964 69.2274C91.7177 69.1227 91.7177 69.0147 91.6964 68.9099C91.6354 68.7528 91.5183 68.6239 91.3678 68.5481C91.1205 68.3939 90.8536 68.2737 90.5742 68.1909C90.2853 68.1052 90.1202 68.0655 90.1091 68.402C90.0974 68.9711 89.9045 69.5216 89.5583 69.9734Z"/><path fill="#A1616A" d="M97.6596 71.0717L97.4818 69.9448C97.453 69.718 97.4058 69.494 97.3405 69.275C97.234 68.9906 97.0978 68.7182 96.9342 68.4623C96.8759 68.3525 96.801 68.2523 96.712 68.1655C96.6109 68.0847 96.4942 68.0258 96.3691 67.9925C96.0447 67.8815 95.6905 67.8951 95.3755 68.0306C95.1263 68.1512 94.8993 68.3798 94.6216 68.3401C94.6268 68.2513 94.6528 68.165 94.6974 68.0881C94.7421 68.0112 94.8042 67.9458 94.8787 67.8973C95.0254 67.802 95.186 67.7302 95.3549 67.6846C95.4454 67.656 95.4596 67.5005 95.4517 67.4052C95.4374 67.229 95.185 67.1909 95.0851 67.0465C94.9851 66.9021 95.0851 66.6672 95.2152 66.5227C95.4394 66.2661 95.7513 66.1025 96.0898 66.064C96.2582 66.0472 96.428 66.0772 96.5804 66.1509C96.7328 66.2246 96.8618 66.339 96.9532 66.4814C97.0207 66.6202 97.0785 66.7633 97.1262 66.91C97.2537 67.1808 97.423 67.4298 97.6278 67.6481C98.104 68.2084 98.5024 68.8147 98.9325 69.4083C99.0764 69.5975 99.2079 69.7958 99.3261 70.0019C99.5154 70.3535 99.6239 70.7428 99.6436 71.1416C99.6578 71.2642 99.6397 71.3884 99.5912 71.5019C99.542 71.5845 99.4724 71.6531 99.389 71.7009C99.3055 71.7487 99.2112 71.7742 99.115 71.7749C98.9199 71.77 98.7271 71.7314 98.5452 71.6606L97.8532 71.4273C97.7689 71.4086 97.6918 71.3662 97.631 71.3051C97.6058 71.2696 97.5948 71.226 97.6001 71.1829C97.6054 71.1397 97.6266 71.1001 97.6596 71.0717Z"/><path fill="#A1616A" d="M83.8267 71.3209L84.0029 70.194C84.0329 69.9673 84.0807 69.7434 84.1458 69.5242C84.2516 69.2395 84.3878 68.967 84.5521 68.7115C84.6089 68.6016 84.6834 68.5019 84.7727 68.4163C84.8732 68.3346 84.9901 68.2756 85.1156 68.2433C85.4404 68.1318 85.795 68.1449 86.1108 68.2798C86.36 68.4004 86.5869 68.629 86.8647 68.5893C86.8592 68.5006 86.8332 68.4143 86.7885 68.3375C86.7439 68.2606 86.6819 68.1952 86.6076 68.1464C86.4608 68.0514 86.3001 67.9797 86.1314 67.9338C86.0409 67.9052 86.0266 67.7496 86.0346 67.6544C86.0489 67.4782 86.2997 67.4401 86.4012 67.2957C86.5028 67.1512 86.4012 66.9163 86.2695 66.7735C86.0457 66.5162 85.7337 66.352 85.3949 66.3132C85.2265 66.2965 85.0568 66.3267 84.9044 66.4003C84.7521 66.474 84.623 66.5883 84.5315 66.7306C84.4645 66.8694 84.4073 67.0126 84.36 67.1592C84.2321 67.4297 84.0629 67.6787 83.8585 67.8973C83.3823 68.4576 82.9839 69.0639 82.5522 69.6575C82.4086 69.8465 82.2776 70.0449 82.1601 70.2511C81.9716 70.603 81.8632 70.9922 81.8427 71.3908C81.8291 71.5141 81.8477 71.6387 81.8966 71.7527C81.9468 71.8361 82.0178 71.9049 82.1027 71.9525C82.1876 72.0001 82.2834 72.0248 82.3807 72.0241C82.5754 72.02 82.7678 71.9813 82.949 71.9098L83.6426 71.6828C83.7265 71.6645 83.8032 71.622 83.8632 71.5606C83.8894 71.5237 83.9002 71.4781 83.8934 71.4334C83.8865 71.3887 83.8627 71.3484 83.8267 71.3209Z"/><path fill="#3F3D56" d="M96.3976 97.047C96.5944 97.2057 96.7674 97.4644 96.6754 97.7009C96.5992 97.893 96.3817 97.9834 96.1802 98.031C95.9742 98.0544 95.7773 98.1286 95.6072 98.2469C95.5533 98.3053 95.4955 98.3599 95.4342 98.4104C95.3171 98.4747 95.1824 98.4998 95.0501 98.4818C94.8088 98.4723 94.5739 98.4517 94.3279 98.4199C94.2765 98.4178 94.2266 98.4019 94.1834 98.3739C94.1543 98.3422 94.1322 98.3048 94.1186 98.2641C94.1049 98.2233 94.0999 98.1802 94.1041 98.1374C94.0849 97.8969 94.0945 97.655 94.1326 97.4168C94.1727 97.1775 94.2957 96.96 94.4802 96.8025C94.6643 96.6597 95.2231 96.2359 95.4326 96.5073C95.4881 96.5803 95.4659 96.6803 95.5437 96.7406C95.6215 96.8009 95.7437 96.7676 95.8326 96.7787C96.0427 96.8122 96.2388 96.9053 96.3976 97.047Z"/><path fill="#3F3D56" d="M85.6728 97.1295C85.476 97.2882 85.303 97.5469 85.3951 97.7834C85.4697 97.9755 85.6871 98.0675 85.8887 98.1135C86.0947 98.1367 86.2916 98.2108 86.4617 98.3294C86.5159 98.3905 86.5742 98.4478 86.6363 98.5008C86.7532 98.5641 86.8869 98.5891 87.0188 98.5723C87.2601 98.5627 87.495 98.5421 87.741 98.5088C87.7924 98.5069 87.8424 98.4909 87.8854 98.4627C87.9148 98.4312 87.9372 98.3939 87.9511 98.3531C87.9651 98.3124 87.9703 98.2691 87.9664 98.2262C87.9842 97.9862 87.9741 97.7449 87.9362 97.5072C87.8972 97.2672 87.774 97.0489 87.5886 96.8914C87.4061 96.7485 86.8474 96.3248 86.6363 96.5962C86.5807 96.6692 86.6029 96.7708 86.5236 96.8295C86.4442 96.8882 86.3252 96.8565 86.2347 96.8676C86.0265 96.9003 85.8318 96.9911 85.6728 97.1295Z"/><path fill="#3F3D56" d="M88.3712 80.1937C87.6554 82.2571 86.9602 84.3919 87.0141 86.5807C87.0491 87.9061 87.3316 89.3663 86.5681 90.4536C86.4592 90.5832 86.3729 90.7302 86.3126 90.8885C86.2523 91.1012 86.3126 91.3265 86.3507 91.5456C86.4935 92.4979 85.9809 93.428 85.9444 94.3899C85.9404 94.6862 85.9595 94.9823 86.0015 95.2756L86.1999 96.9708C86.2666 97.5517 87.0157 97.7898 87.5935 97.8707C87.8652 97.5465 88.0357 97.1497 88.0839 96.7295C88.1331 96.4121 88.1411 96.0835 88.1601 95.7613C88.2093 94.9359 88.3284 94.1169 88.4458 93.2995L88.6046 92.2471C88.6553 91.9011 88.7045 91.5551 88.7633 91.2091C89.0597 89.3407 89.5181 87.5015 90.1331 85.7125C90.268 85.3268 90.4981 84.8776 90.9045 84.8665L91.1473 85.3331C91.4648 85.9252 91.6568 86.5855 91.8981 87.2093C92.2155 88.0299 92.106 88.9854 92.533 89.7584C92.6028 89.8853 92.6917 90.0076 92.7425 90.1409C92.8169 90.345 92.8607 90.5589 92.8726 90.7758L93.1536 93.6138C93.2806 94.8915 93.4155 96.2041 93.9916 97.3517C94.0487 97.4889 94.1399 97.6091 94.2567 97.7009C94.4916 97.8596 94.8202 97.7787 95.0503 97.6136C95.2323 97.4797 95.378 97.3023 95.4739 97.0977C95.5698 96.8931 95.613 96.6678 95.5995 96.4422C95.5808 96.3177 95.5754 96.1916 95.5836 96.066C95.6173 95.9395 95.6608 95.8159 95.7138 95.6962C95.8979 95.1375 95.509 94.5693 95.3709 93.9979C95.1884 93.236 95.4598 92.4392 95.4122 91.6567C95.336 90.4282 94.4773 89.2758 94.7043 88.068C94.8868 87.1013 94.7313 86.1077 94.5599 85.1395L93.917 81.5365C93.8155 80.9682 93.6631 80.327 93.1568 80.0492C92.8666 79.9193 92.5483 79.8647 92.2314 79.8905C90.9187 79.8905 89.6648 80.073 88.3712 80.1937Z"/><path fill="#1F59BB" d="M99.831 71.4114C99.3688 71.4579 98.9034 71.3615 98.4977 71.1352C98.3435 71.0328 98.1792 70.9466 98.0072 70.8781C97.6898 70.7749 97.3406 70.8654 97.0073 70.9146C96.4601 70.9938 95.9023 70.956 95.3708 70.8035C94.8153 70.6448 94.2598 70.3575 93.6884 70.486C93.4201 70.5448 93.1773 70.6924 92.9058 70.7352C92.6938 70.7567 92.4796 70.7454 92.2709 70.7019L90.4615 70.4194C90.0531 70.3376 89.6361 70.3078 89.2203 70.3305C88.9055 70.3891 88.5875 70.4289 88.2679 70.4495C87.933 70.4495 87.6029 70.3225 87.268 70.3448C87.0701 70.3673 86.8753 70.4115 86.687 70.4765C85.8177 70.7305 84.9149 70.8509 84.0094 70.8336C83.2873 70.8809 82.5915 71.1222 81.9951 71.532C81.954 71.5548 81.9184 71.5863 81.891 71.6245C81.8635 71.6626 81.8449 71.7064 81.8364 71.7526C81.8417 71.7957 81.8555 71.8372 81.877 71.8748C81.8986 71.9124 81.9274 71.9454 81.9618 71.9717C82.2031 72.2161 82.4586 72.4669 82.7856 72.5717C82.9885 72.6194 83.1942 72.6544 83.4014 72.6764C83.9014 72.7685 84.3633 73.0558 84.8712 73.0558C85.222 73.0558 85.5664 72.9161 85.9125 72.9653C86.3886 73.0304 86.7299 73.4145 87.0235 73.7891C87.2704 74.0817 87.4566 74.4205 87.5711 74.7859C87.6822 75.2271 87.6124 75.7223 87.8489 76.1112C87.9082 76.1906 87.9543 76.279 87.9854 76.3731C87.9905 76.5224 87.9571 76.6705 87.8886 76.8033C87.6886 77.4143 88.1267 78.0603 88.0806 78.7079C88.0584 79.0143 87.9219 79.3063 87.9076 79.6127C87.8854 80.0111 88.0457 80.4539 87.8235 80.7841C88.6809 80.352 89.6338 80.144 90.5932 80.1793C90.7528 80.1832 90.9119 80.198 91.0694 80.2238C91.3754 80.2861 91.6767 80.3699 91.971 80.4745C92.6344 80.6856 93.3646 80.8364 94.0185 80.5952C94.1772 80.2095 94.1502 79.7841 94.101 79.3714C94.0518 78.9587 93.9503 78.5524 93.8883 78.1413C93.8402 77.8111 93.8127 77.4782 93.8058 77.1445C93.7885 76.8154 93.812 76.4854 93.8756 76.162C93.9484 75.8782 94.0478 75.6018 94.1725 75.3366C94.4787 74.5656 94.8505 73.8222 95.2835 73.1145C95.9343 73.0621 96.5644 73.0066 97.2152 72.9558C97.3705 72.9472 97.525 72.9265 97.6771 72.8939C97.8709 72.8277 98.068 72.7715 98.2675 72.7256C98.3423 72.7214 98.4161 72.7065 98.4866 72.6812C98.6294 72.6161 98.7183 72.4352 98.8739 72.4304C98.9329 72.4375 98.9926 72.4375 99.0516 72.4304C99.1215 72.4098 99.1548 72.332 99.2104 72.2717C99.3088 72.1622 99.4691 72.1399 99.5977 72.0701C99.7056 72.0032 99.7876 71.9015 99.83 71.7817C99.8724 71.662 99.8728 71.5314 99.831 71.4114Z"/><path fill="#3F3D56" d="M91.8771 68.4306C91.9278 68.4705 91.9895 68.494 92.0538 68.4979C92.1182 68.5019 92.1822 68.4862 92.2374 68.4529C92.3067 68.3876 92.3534 68.302 92.3708 68.2084C92.4278 68.0101 92.4739 67.8087 92.5088 67.6053C92.518 67.5167 92.545 67.4308 92.5882 67.3529C92.7041 67.1751 92.9549 67.1656 93.1501 67.0847C93.3914 66.9542 93.5911 66.7583 93.7262 66.5196L93.6167 66.4974L93.7199 66.3387C93.6954 66.3238 93.6747 66.3035 93.6594 66.2792C93.6442 66.255 93.6348 66.2275 93.632 66.199C93.6293 66.1705 93.6332 66.1417 93.6435 66.115C93.6538 66.0883 93.6702 66.0643 93.6913 66.045C93.5987 65.9957 93.4946 65.9721 93.3898 65.9768C93.4231 65.9164 93.3691 65.8403 93.3041 65.818C93.2368 65.804 93.1677 65.8002 93.0993 65.8069C92.9979 65.7986 92.8984 65.7751 92.8041 65.7371C92.1279 65.5054 91.3946 65.3006 90.7058 65.4958C90.4014 65.5899 90.1168 65.7389 89.8661 65.9355C89.6236 66.0718 89.4423 66.2956 89.3594 66.5612C89.2765 66.8267 89.2982 67.1139 89.4201 67.364C89.5241 67.622 89.5986 67.8909 89.6423 68.1656C89.6526 68.4235 89.6237 68.6814 89.5566 68.9306C89.7446 68.991 89.939 69.0288 90.1359 69.0433C90.3341 69.0585 90.5312 69.0022 90.6915 68.8846C90.8502 68.7481 90.9391 68.537 91.0692 68.3656C91.1192 68.29 91.1874 68.2282 91.2676 68.1861C91.3478 68.1439 91.4374 68.1226 91.5279 68.1243C91.7041 68.1513 91.7359 68.3306 91.8771 68.4306Z"/><path fill="#3F3D56" d="M87.2869 98.4104H85.4283C85.3733 98.4215 85.3238 98.4512 85.2882 98.4946C85.2527 98.538 85.2333 98.5924 85.2333 98.6485C85.2333 98.7046 85.2527 98.759 85.2882 98.8024C85.3238 98.8458 85.3733 98.8755 85.4283 98.8866H85.7997V102.04H79.4396C79.4249 102.016 79.4043 101.995 79.3797 101.98C79.355 101.965 79.3271 101.956 79.2984 101.955H77.4413C77.3863 101.966 77.3368 101.996 77.3013 102.039C77.2657 102.082 77.2463 102.137 77.2463 102.193C77.2463 102.249 77.2657 102.303 77.3013 102.347C77.3368 102.39 77.3863 102.42 77.4413 102.431H77.8127V105.67H71.6717C71.6662 105.626 71.646 105.585 71.6143 105.554C71.5826 105.523 71.5413 105.504 71.4971 105.499H69.6416C69.5851 105.508 69.5338 105.537 69.4967 105.581C69.4597 105.625 69.4394 105.68 69.4394 105.737C69.4394 105.794 69.4597 105.85 69.4967 105.893C69.5338 105.937 69.5851 105.966 69.6416 105.975H69.8273V109.308H63.5847C63.5615 109.295 63.5352 109.288 63.5085 109.288H61.6515C61.5965 109.299 61.547 109.329 61.5114 109.372C61.4759 109.415 61.4565 109.47 61.4565 109.526C61.4565 109.582 61.4759 109.636 61.5114 109.68C61.547 109.723 61.5965 109.753 61.6515 109.764H61.8372V112.938H55.6739C55.6606 112.907 55.6385 112.88 55.6104 112.861C55.5822 112.842 55.5492 112.831 55.5152 112.83H53.6581C53.6031 112.842 53.5536 112.871 53.5181 112.915C53.4826 112.958 53.4631 113.012 53.4631 113.069C53.4631 113.125 53.4826 113.179 53.5181 113.222C53.5536 113.266 53.6031 113.296 53.6581 113.307H53.8438V116.822H95.831V98.4104H87.2869Z"/><path fill="#1F59BB" d="M27.4623 37.5081C27.2789 37.2661 27.0709 37.0437 26.8417 36.8446C26.7795 36.7905 26.7306 36.7226 26.699 36.6464C26.6674 36.5702 26.654 36.4877 26.6597 36.4054C26.6653 36.3231 26.6901 36.2433 26.7318 36.1721C26.7736 36.101 26.8313 36.0405 26.9004 35.9955C26.9766 35.9462 27.0512 35.8939 27.1258 35.8367C27.9925 35.178 28.4305 34.2939 28.102 33.8606C27.7734 33.4273 26.8036 33.6114 25.937 34.2701C25.8368 34.3446 25.7409 34.4246 25.6497 34.5098C25.5887 34.5646 25.5159 34.6046 25.437 34.6266C25.358 34.6486 25.275 34.6521 25.1945 34.6367C25.1139 34.6214 25.0381 34.5876 24.9727 34.538C24.9074 34.4885 24.8545 34.4245 24.818 34.3511C24.6962 34.1123 24.5533 33.885 24.391 33.6717C23.6196 32.6559 22.5847 32.1432 22.0784 32.5273C21.5721 32.9115 21.7848 34.0479 22.5546 35.0669C22.7051 35.266 22.8724 35.4519 23.0546 35.6225C23.1148 35.6811 23.1604 35.753 23.1877 35.8324C23.215 35.9119 23.2233 35.9966 23.2119 36.0799C23.2004 36.1631 23.1696 36.2425 23.1219 36.3116C23.0742 36.3808 23.0109 36.4378 22.9371 36.478C21.9848 37.0224 21.4467 37.843 21.7165 38.3144C21.9863 38.7858 22.9736 38.7271 23.918 38.1843C24.0644 38.0993 24.2054 38.0055 24.3402 37.9033C24.4037 37.855 24.4772 37.8214 24.5554 37.8051C24.6335 37.7888 24.7143 37.7901 24.7918 37.809C24.8694 37.8278 24.9418 37.8637 25.0037 37.9141C25.0656 37.9645 25.1155 38.028 25.1497 38.1001C25.2785 38.3815 25.4382 38.6477 25.6259 38.8937C26.3957 39.9096 27.4322 40.4223 27.9385 40.0381C28.4448 39.654 28.2321 38.5255 27.4623 37.5081Z" opacity=".1"/><path fill="#1F59BB" d="M139.89 64.9371C140.069 64.6919 140.221 64.4286 140.345 64.1514C140.379 64.0761 140.429 64.0096 140.493 63.9571C140.556 63.9047 140.631 63.8678 140.711 63.8493C140.791 63.8308 140.875 63.8313 140.955 63.8506C141.035 63.87 141.109 63.9078 141.172 63.9609C141.242 64.0181 141.315 64.0736 141.39 64.1292C142.272 64.7641 143.247 64.9228 143.564 64.4863C143.882 64.0498 143.425 63.1721 142.542 62.534C142.436 62.4589 142.33 62.3906 142.225 62.3293C142.154 62.2867 142.095 62.2284 142.051 62.1591C142.007 62.0897 141.98 62.0112 141.972 61.9295C141.963 61.8479 141.974 61.7654 142.002 61.6886C142.031 61.6117 142.077 61.5425 142.137 61.4864C142.33 61.301 142.506 61.098 142.661 60.8801C143.409 59.8468 143.596 58.7072 143.082 58.3405C142.567 57.9739 141.542 58.4993 140.794 59.5389C140.649 59.7395 140.52 59.9518 140.409 60.1738C140.37 60.2485 140.315 60.3132 140.247 60.3625C140.179 60.4119 140.1 60.4446 140.017 60.458C139.935 60.4715 139.85 60.4653 139.77 60.4399C139.689 60.4145 139.616 60.3706 139.556 60.3119C138.763 59.5675 137.81 59.2849 137.444 59.677C137.077 60.069 137.417 60.9992 138.212 61.7404C138.336 61.8547 138.467 61.9608 138.604 62.0578C138.669 62.1046 138.722 62.1653 138.76 62.2353C138.799 62.3054 138.821 62.3831 138.825 62.4627C138.83 62.5424 138.816 62.6221 138.786 62.6959C138.756 62.7698 138.709 62.8359 138.65 62.8896C138.417 63.0982 138.208 63.3319 138.026 63.5864C137.279 64.6196 137.091 65.7593 137.607 66.1259C138.123 66.4926 139.142 65.972 139.89 64.9371Z" opacity=".1"/><path fill="#1F59BB" d="M140.702 118.518C143.665 118.518 146.067 118.056 146.067 117.486C146.067 116.916 143.665 116.454 140.702 116.454C137.739 116.454 135.337 116.916 135.337 117.486C135.337 118.056 137.739 118.518 140.702 118.518Z"/><path fill="#3F3D56" d="M140.613 117.865C140.959 117.865 141.239 117.499 141.239 117.048C141.239 116.596 140.959 116.23 140.613 116.23C140.268 116.23 139.988 116.596 139.988 117.048C139.988 117.499 140.268 117.865 140.613 117.865Z"/><path fill="#3F3D56" d="M140.613 116.865C140.959 116.865 141.239 116.499 141.239 116.048C141.239 115.596 140.959 115.23 140.613 115.23C140.268 115.23 139.988 115.596 139.988 116.048C139.988 116.499 140.268 116.865 140.613 116.865Z"/><path fill="#3F3D56" d="M140.613 115.867C140.959 115.867 141.239 115.501 141.239 115.049C141.239 114.598 140.959 114.232 140.613 114.232C140.268 114.232 139.988 114.598 139.988 115.049C139.988 115.501 140.268 115.867 140.613 115.867Z"/><path fill="#3F3D56" d="M140.613 114.867C140.959 114.867 141.239 114.501 141.239 114.049C141.239 113.598 140.959 113.232 140.613 113.232C140.268 113.232 139.988 113.598 139.988 114.049C139.988 114.501 140.268 114.867 140.613 114.867Z"/><path fill="#3F3D56" d="M140.613 113.867C140.959 113.867 141.239 113.501 141.239 113.049C141.239 112.598 140.959 112.232 140.613 112.232C140.268 112.232 139.988 112.598 139.988 113.049C139.988 113.501 140.268 113.867 140.613 113.867Z"/><path fill="#3F3D56" d="M140.613 112.868C140.959 112.868 141.239 112.503 141.239 112.051C141.239 111.6 140.959 111.234 140.613 111.234C140.268 111.234 139.988 111.6 139.988 112.051C139.988 112.503 140.268 112.868 140.613 112.868Z"/><path fill="#3F3D56" d="M140.613 111.869C140.959 111.869 141.239 111.503 141.239 111.051C141.239 110.6 140.959 110.234 140.613 110.234C140.268 110.234 139.988 110.6 139.988 111.051C139.988 111.503 140.268 111.869 140.613 111.869Z"/><path fill="#1F59BB" d="M142.951 104.212C143.036 104.103 143.113 103.988 143.183 103.869L141.544 103.599L143.318 103.613C143.489 103.243 143.582 102.841 143.592 102.434C143.602 102.026 143.528 101.62 143.375 101.242L140.994 102.477L143.191 100.863C142.984 100.509 142.707 100.201 142.377 99.9587C142.047 99.7163 141.67 99.5444 141.27 99.4536C140.871 99.3628 140.457 99.3551 140.054 99.4309C139.651 99.5067 139.268 99.6644 138.929 99.8943C138.59 100.124 138.301 100.421 138.082 100.767C137.862 101.113 137.716 101.501 137.652 101.905C137.588 102.31 137.608 102.724 137.711 103.12C137.813 103.517 137.996 103.889 138.249 104.212C138.116 104.381 138.002 104.564 137.907 104.758L140.039 105.869L137.766 105.107C137.606 105.578 137.566 106.081 137.649 106.572C137.732 107.062 137.936 107.524 138.242 107.916C137.895 108.358 137.68 108.888 137.62 109.446C137.56 110.004 137.658 110.568 137.903 111.073C138.149 111.578 138.531 112.004 139.007 112.301C139.483 112.599 140.033 112.757 140.594 112.757C141.156 112.757 141.706 112.599 142.182 112.301C142.658 112.004 143.04 111.578 143.285 111.073C143.531 110.568 143.629 110.004 143.569 109.446C143.509 108.888 143.294 108.358 142.947 107.916C143.361 107.389 143.586 106.737 143.586 106.066C143.586 105.396 143.361 104.744 142.947 104.216L142.951 104.212Z"/><path fill="#000" d="M137.607 106.061C137.605 106.732 137.829 107.383 138.242 107.912C137.895 108.353 137.68 108.883 137.62 109.441C137.56 109.999 137.658 110.563 137.903 111.068C138.149 111.573 138.531 111.999 139.007 112.297C139.483 112.594 140.033 112.752 140.594 112.752C141.156 112.752 141.706 112.594 142.182 112.297C142.658 111.999 143.04 111.573 143.285 111.068C143.531 110.563 143.629 109.999 143.569 109.441C143.509 108.883 143.294 108.353 142.947 107.912C143.351 107.402 137.607 105.726 137.607 106.061Z" opacity=".1"/><path fill="#1F59BB" d="M42.9285 118.198C44.2697 118.198 45.3569 117.99 45.3569 117.732C45.3569 117.474 44.2697 117.265 42.9285 117.265C41.5873 117.265 40.5 117.474 40.5 117.732C40.5 117.99 41.5873 118.198 42.9285 118.198Z"/><path fill="#3F3D56" d="M42.8887 117.903C43.0448 117.903 43.1713 117.738 43.1713 117.533C43.1713 117.329 43.0448 117.164 42.8887 117.164C42.7327 117.164 42.6062 117.329 42.6062 117.533C42.6062 117.738 42.7327 117.903 42.8887 117.903Z"/><path fill="#3F3D56" d="M42.8887 117.451C43.0448 117.451 43.1713 117.285 43.1713 117.081C43.1713 116.877 43.0448 116.711 42.8887 116.711C42.7327 116.711 42.6062 116.877 42.6062 117.081C42.6062 117.285 42.7327 117.451 42.8887 117.451Z"/><path fill="#3F3D56" d="M42.8887 116.999C43.0448 116.999 43.1713 116.833 43.1713 116.629C43.1713 116.424 43.0448 116.259 42.8887 116.259C42.7327 116.259 42.6062 116.424 42.6062 116.629C42.6062 116.833 42.7327 116.999 42.8887 116.999Z"/><path fill="#3F3D56" d="M42.8887 116.546C43.0448 116.546 43.1713 116.381 43.1713 116.176C43.1713 115.972 43.0448 115.807 42.8887 115.807C42.7327 115.807 42.6062 115.972 42.6062 116.176C42.6062 116.381 42.7327 116.546 42.8887 116.546Z"/><path fill="#3F3D56" d="M42.8887 116.094C43.0448 116.094 43.1713 115.928 43.1713 115.724C43.1713 115.52 43.0448 115.354 42.8887 115.354C42.7327 115.354 42.6062 115.52 42.6062 115.724C42.6062 115.928 42.7327 116.094 42.8887 116.094Z"/><path fill="#3F3D56" d="M42.8887 115.641C43.0448 115.641 43.1713 115.476 43.1713 115.272C43.1713 115.067 43.0448 114.902 42.8887 114.902C42.7327 114.902 42.6062 115.067 42.6062 115.272C42.6062 115.476 42.7327 115.641 42.8887 115.641Z"/><path fill="#3F3D56" d="M42.8887 115.189C43.0448 115.189 43.1713 115.024 43.1713 114.819C43.1713 114.615 43.0448 114.449 42.8887 114.449C42.7327 114.449 42.6062 114.615 42.6062 114.819C42.6062 115.024 42.7327 115.189 42.8887 115.189Z"/><path fill="#1F59BB" d="M43.946 111.722C43.9853 111.672 44.0209 111.619 44.0523 111.564L43.3095 111.442H44.1126C44.1943 111.264 44.2366 111.071 44.2365 110.875C44.2368 110.701 44.2034 110.529 44.138 110.369L43.0603 110.927L44.0539 110.197C43.9604 110.037 43.835 109.898 43.6855 109.788C43.5359 109.678 43.3654 109.601 43.1846 109.56C43.0037 109.518 42.8164 109.515 42.6341 109.549C42.4518 109.584 42.2786 109.655 42.1251 109.759C41.9716 109.863 41.841 109.998 41.7417 110.154C41.6423 110.311 41.5761 110.486 41.5472 110.669C41.5184 110.852 41.5275 111.04 41.574 111.219C41.6205 111.399 41.7034 111.567 41.8175 111.713C41.7559 111.789 41.7027 111.872 41.6588 111.959L42.6222 112.461L41.5937 112.115C41.522 112.328 41.5045 112.555 41.5427 112.777C41.5809 112.999 41.6737 113.207 41.8127 113.384C41.6551 113.584 41.5569 113.824 41.5294 114.077C41.5019 114.33 41.5462 114.586 41.6573 114.815C41.7683 115.044 41.9416 115.237 42.1573 115.373C42.373 115.508 42.6224 115.579 42.877 115.579C43.1315 115.579 43.3809 115.508 43.5966 115.373C43.8123 115.237 43.9856 115.044 44.0967 114.815C44.2077 114.586 44.252 114.33 44.2246 114.077C44.1971 113.824 44.0989 113.584 43.9412 113.384C44.1293 113.146 44.2316 112.851 44.2316 112.547C44.2316 112.243 44.1293 111.948 43.9412 111.71L43.946 111.722Z"/><path fill="#000" d="M41.5269 112.559C41.5269 112.863 41.6292 113.158 41.8174 113.397C41.6597 113.597 41.5615 113.837 41.5341 114.09C41.5066 114.343 41.5509 114.599 41.6619 114.828C41.773 115.057 41.9463 115.25 42.162 115.385C42.3777 115.52 42.6271 115.592 42.8816 115.592C43.1362 115.592 43.3856 115.52 43.6013 115.385C43.817 115.25 43.9903 115.057 44.1013 114.828C44.2124 114.599 44.2567 114.343 44.2292 114.09C44.2017 113.837 44.1035 113.597 43.9459 113.397C44.1284 113.172 41.5269 112.407 41.5269 112.559Z" opacity=".1"/></g><defs><linearGradient id="paint0_linear" x1="90.779" x2="90.779" y1="116.299" y2="18.049" gradientUnits="userSpaceOnUse"><stop stop-color="gray" stop-opacity=".25"/><stop offset=".54" stop-color="gray" stop-opacity=".12"/><stop offset="1" stop-color="gray" stop-opacity=".1"/></linearGradient><linearGradient id="paint1_linear" x1="-864.401" x2="-858.687" y1="387.919" y2="387.919" gradientUnits="userSpaceOnUse"><stop stop-color="gray" stop-opacity=".25"/><stop offset=".54" stop-color="gray" stop-opacity=".12"/><stop offset="1" stop-color="gray" stop-opacity=".1"/></linearGradient><linearGradient id="paint2_linear" x1="10715" x2="10715" y1="23154.9" y2="16162.7" gradientUnits="userSpaceOnUse"><stop stop-color="gray" stop-opacity=".25"/><stop offset=".54" stop-color="gray" stop-opacity=".12"/><stop offset="1" stop-color="gray" stop-opacity=".1"/></linearGradient><clipPath id="clip0"><rect width="185.313" height="120" fill="#fff"/></clipPath></defs></svg>