<svg xmlns="http://www.w3.org/2000/svg" width="227" height="120" fill="none" viewBox="0 0 227 120"><g clip-path="url(#clip0)"><path fill="#1F59BB" d="M9.58923 16.4145C9.95562 18.739 10.892 20.9842 10.9001 23.3352C10.9306 31.0173 1.60999 35.7356 0.183088 43.2833C-0.663689 47.7615 1.5306 52.3373 4.62459 55.6776C7.71858 59.0179 11.6634 61.4259 15.2968 64.1739C25.3498 71.7909 33.0987 82.0415 37.6855 93.7907C38.6035 96.1519 39.3933 98.5864 39.6539 101.106C39.8432 102.938 39.7536 104.813 40.1831 106.602C41.8828 113.704 50.5012 116.46 57.7883 116.92C69.5249 117.649 81.2728 115.687 92.1357 111.184C94.5783 110.166 97.1003 109.01 99.7221 109.297C101.819 109.527 103.689 110.661 105.529 111.693C110.948 114.734 116.716 117.109 122.705 118.764C126.023 119.68 129.506 120.377 132.895 119.782C143.073 117.987 148.481 105.644 158.467 102.944C165.376 101.078 172.565 104.339 178.761 107.919C184.957 111.5 191.353 115.624 198.506 115.634C208.048 115.646 215.893 108.424 222.366 101.414C223.724 99.942 225.104 98.4032 225.751 96.5081C227.064 92.661 224.937 88.3396 221.792 85.7544C218.647 83.1693 214.682 81.887 210.894 80.4092C204.473 77.9042 198.346 74.7043 192.621 70.8667C188.917 68.3833 185.328 65.5743 182.794 61.9104C180.614 58.7512 179.305 55.0893 177.843 51.5394C174.639 43.7657 170.108 35.8659 162.542 32.2182C156.365 29.2382 149.189 29.5721 142.332 29.4927C132.227 29.3807 121.866 28.1655 112.908 23.492C105.342 19.5451 99.1277 13.3144 91.4497 9.58326C79.2366 3.65379 65.275 4.81608 52.1153 5.03998C45.791 5.14787 38.2738 5.77888 32.1998 3.70672C27.7074 2.17397 25.395 -0.958693 20.235 0.303329C13.1778 2.02334 8.46155 9.24333 9.58923 16.4145Z" opacity=".1"/><path fill="url(#paint0_linear)" d="M196.698 72.3688C196.379 71.3109 196.412 70.1776 196.794 69.1405C197.405 67.5609 198.893 66.421 199.416 64.8069C200.389 61.8085 197.767 59.0015 196.159 56.2841C194.684 53.7629 194.015 50.8507 194.243 47.9385C194.494 44.8119 195.774 41.8218 195.872 38.6871C195.959 35.7661 195.013 32.9245 194.079 30.1562C193.307 27.8683 192.521 25.5539 191.217 23.5225C188.75 19.6814 184.367 17.2673 179.86 16.8683C177.733 16.679 175.653 17.3711 173.563 17.1004C170.66 16.7259 167.916 15.9727 164.956 15.8791C162.145 15.7956 159.037 16.1518 157.122 18.2118C155.658 19.7893 155.19 22.0671 153.851 23.7525C151.949 26.1442 148.625 26.9645 146.523 29.1792C145.614 30.1579 144.976 31.3565 144.672 32.6568C144.367 33.957 144.407 35.3142 144.786 36.5946C145.077 37.539 145.554 38.4164 145.863 39.3547C147.164 43.2751 145.456 47.4683 144.424 51.4661C144.308 51.7927 144.287 52.1456 144.363 52.4838C144.526 52.9723 145.039 53.2288 145.464 53.5179C146.856 54.4664 147.567 56.1844 147.703 57.8637C147.84 59.543 147.451 61.2162 147.068 62.8568C146.093 67.0276 144.874 71.4956 141.66 74.27C141.076 72.8782 140.386 71.5335 139.596 70.2478C137.629 67.0602 136.174 63.1235 136.15 59.3557C136.148 59.3442 136.148 59.3326 136.15 59.3211C136.15 59.1176 136.16 58.914 136.172 58.7105C136.426 54.2649 138.348 49.9761 138.305 45.5508C138.305 45.1926 138.295 44.8337 138.275 44.4741C138.024 40.686 136.205 37.1828 134.118 34.0115C132.561 31.6442 130.806 29.3583 128.559 27.6342C125.085 24.9901 120.67 23.842 116.332 23.2354C111.994 22.6289 108.047 22.0589 103.675 21.7658C98.9729 21.4503 93.7986 21.2732 90.0818 24.1677C85.2352 27.9416 84.9665 35.2308 81.272 40.1364C79.0737 43.0553 75.5726 45.3106 74.4144 48.6265C74.1011 47.8128 73.84 46.9799 73.6327 46.133C73.6205 46.076 73.6083 46.021 73.5961 45.9641C74.9929 41.9631 75.3178 37.6661 74.5386 33.5006C74.6305 32.8259 74.6774 32.1459 74.679 31.4651C74.7017 30.7241 74.6216 29.9836 74.4408 29.2647C73.9177 27.2821 72.4745 25.6964 71.0802 24.1921C70.5726 23.6179 70.0213 23.0836 69.4314 22.5943C65.7825 18.1734 60.6808 15.1935 55.0376 14.1869C49.3944 13.1804 43.5771 14.2126 38.6247 17.0993C33.6723 19.986 29.9073 24.5391 28.0022 29.9456C26.097 35.352 26.1758 41.2597 28.2244 46.6134C28.0452 48.0016 27.5079 49.3512 26.5206 50.3302C26.0708 50.776 25.4886 51.3338 25.5863 51.9037C25.556 52.066 25.5789 52.2338 25.6515 52.382C25.7515 52.5597 25.8907 52.7122 26.0586 52.8278C27.4826 53.9161 29.2561 54.4447 31.0436 54.3138C32.5519 58.7467 35.5089 62.5427 39.438 65.0898C39.438 65.2255 39.4333 65.3571 39.4238 65.4847C39.4238 65.7106 39.4055 65.9345 39.3953 66.1625C39.3953 66.2134 39.3953 66.2643 39.3953 66.3152C39.3953 66.2968 39.3953 66.2765 39.3953 66.2561C39.3953 66.2358 32.3076 75.4954 25.7573 75.8394C22.2603 76.0226 19.209 78.3817 16.8967 81.0788C14.1202 84.3153 12.4063 88.0362 12.2598 89.0662C11.9891 90.9551 10.1001 100.135 10.1001 100.135H64.5177C63.8745 103.441 63.0073 107.652 63.0073 107.652H151.103C150.899 104.821 150.673 102.203 150.463 99.9867H161.539L161.526 100.054H212.618L215.859 95.191C215.055 81.0218 206.697 73.2319 196.698 72.3688ZM69.4986 56.5406C70.648 57.159 71.8827 57.6035 73.1625 57.8596C73.7182 57.9736 74.3391 58.0449 74.8133 57.7334C75.1277 57.496 75.3603 57.1666 75.479 56.791L75.5034 56.852C76.8774 60.3124 78.1496 63.8827 78.3959 67.5996C78.4183 67.9497 78.4325 68.2998 78.4345 68.6519C78.44 70.7721 78.0026 72.8701 77.1501 74.8114C72.548 72.3913 68.1098 69.6714 63.8643 66.6693L63.5773 66.5472C63.5773 66.5696 63.677 66.824 63.7951 67.2535C63.8236 67.3574 63.8541 67.4713 63.8846 67.5935C63.5936 66.6531 63.3289 65.6923 63.0969 64.7132C63.0704 64.5972 63.044 64.4812 63.0175 64.3651C65.7894 62.3307 68.0158 59.6429 69.4986 56.5406Z"/><path fill="#F7D6C8" d="M164.14 16.5997C161.374 16.5162 158.313 16.8684 156.43 18.8958C154.989 20.4468 154.529 22.69 153.21 24.3489C151.339 26.704 148.068 27.5101 145.996 29.6901C145.101 30.6535 144.473 31.8333 144.173 33.1132C143.874 34.3932 143.912 35.7291 144.286 36.9895C144.573 37.9177 145.041 38.7828 145.346 39.7049C146.627 43.5724 144.956 47.6902 143.922 51.6249C143.806 51.9476 143.786 52.2965 143.862 52.6304C144.021 53.1108 144.528 53.3632 144.945 53.6482C146.315 54.5825 147.016 56.272 147.14 57.9228C147.264 59.5736 146.891 61.2224 146.515 62.8365C145.515 67.1111 144.253 71.7134 140.783 74.4064C139.317 75.5565 137.359 76.4888 136.976 78.3207C136.529 80.4662 138.576 82.29 140.541 83.2609C146.307 86.1107 153.002 86.1514 159.31 87.4216C164.865 88.5411 170.406 90.6621 176.028 89.9375C178.533 89.6158 180.929 88.7345 183.301 87.8612L198.066 82.4203C198.483 82.2928 198.876 82.0953 199.227 81.8361C200.116 81.0952 200.147 79.6866 199.662 78.6342C199.178 77.5818 198.298 76.7758 197.525 75.9127C195.839 74.0258 194.557 71.3613 195.477 69.0042C196.088 67.449 197.543 66.3275 198.058 64.7296C199.015 61.7781 196.43 59.0138 194.862 56.3392C193.412 53.8602 192.755 50.9972 192.978 48.134C193.224 45.0563 194.484 42.1129 194.575 39.0271C194.661 36.1529 193.731 33.3561 192.811 30.6305C192.051 28.3793 191.278 26.1015 189.993 24.1006C187.565 20.3206 183.252 17.9452 178.814 17.5503C176.72 17.3651 174.674 18.0449 172.616 17.7803C169.756 17.4282 167.053 16.6872 164.14 16.5997Z"/><path fill="#EFB7B9" d="M168.27 97.3711C168.27 97.3711 151.53 86.876 158.04 74.7769C159.546 71.9801 160.212 69.3339 160.348 66.9177C160.384 66.2811 160.384 65.643 160.348 65.0064C160.348 64.9758 160.348 64.9453 160.348 64.9148C160.326 64.5864 160.297 64.2634 160.26 63.9459C159.485 57.5584 155.381 53.3958 155.381 53.3958C155.381 53.3958 183.148 45.2924 178.499 52.5978C176.341 55.989 176.986 59.3151 178.432 62.7571C178.584 63.1194 178.747 63.4858 178.916 63.8502C180.585 67.4795 182.902 71.2391 183.549 75.3163C184.876 83.6863 168.27 97.3711 168.27 97.3711Z"/><path fill="#000" d="M178.499 52.5979C176.341 55.9891 176.986 59.3151 178.432 62.7572C175.753 64.4842 172.678 65.5004 169.498 65.7098C166.318 65.9192 163.136 65.315 160.254 63.954C159.485 57.5584 155.381 53.3958 155.381 53.3958C155.381 53.3958 183.15 45.2904 178.499 52.5979Z" opacity=".1"/><path fill="#EFB7B9" d="M168.268 65.3524C178.614 65.3524 187.001 56.9654 187.001 46.6195C187.001 36.2736 178.614 27.8866 168.268 27.8866C157.922 27.8866 149.535 36.2736 149.535 46.6195C149.535 56.9654 157.922 65.3524 168.268 65.3524Z"/><path fill="#000" d="M160.348 65.0145C160.348 64.9839 160.348 64.9534 160.348 64.9229L160.371 64.8862C160.358 64.931 160.35 64.9738 160.348 65.0145Z" opacity=".1"/><path fill="#000" d="M168.27 97.3711C168.27 97.3711 151.53 86.876 158.04 74.7769C159.546 71.9801 160.212 69.3339 160.348 66.9177C160.729 69.9059 162.791 73.6207 166.544 78.7624C168.173 81.0015 168.873 84.1321 169.095 87.2607L169.467 87.5314L171.299 86.4241C171.503 82.9637 172.203 79.4667 173.86 76.9874C178.214 70.4738 179.248 67.2169 178.926 63.842C180.595 67.4714 182.912 71.231 183.559 75.3081C184.876 83.6863 168.27 97.3711 168.27 97.3711Z" opacity=".1"/><path fill="#000" d="M180.933 37.5656C180.119 39.5807 178.674 41.2824 177.094 42.7765C174.912 44.8426 172.168 46.6623 169.168 46.5219C170.804 44.998 171.988 43.0527 172.59 40.8998C170.697 42.003 169.266 43.7495 167.458 44.9932C165.65 46.2369 163.096 46.8781 161.329 45.5794C164.538 43.9661 167.204 41.4474 168.997 38.335C164.706 39.4484 162.504 44.2807 158.638 46.4506C156.826 47.4684 154.708 47.851 152.631 47.8063C151.156 47.7757 149.511 47.4317 148.688 46.2064C148.208 45.4939 148.096 44.5983 148.078 43.7373C147.988 39.8331 149.578 36.0023 152.027 32.9633C154.475 29.9242 157.726 27.6139 161.203 25.8206C162.44 25.1815 163.731 24.5993 165.109 24.3958C166.823 24.1474 168.569 24.5118 170.251 24.8985C172.437 25.3993 174.635 25.9489 176.648 26.9341C180.945 29.0612 182.822 32.9164 180.933 37.5656Z" opacity=".1"/><path fill="#F7D6C8" d="M180.933 37.2989C180.119 39.314 178.674 41.0157 177.094 42.5098C174.912 44.5758 172.168 46.3956 169.168 46.2551C170.804 44.7313 171.988 42.786 172.59 40.633C170.697 41.7363 169.266 43.4828 167.458 44.7265C165.65 45.9702 163.096 46.6114 161.329 45.3127C164.538 43.6993 167.204 41.1807 168.997 38.0683C164.706 39.1817 162.504 44.014 158.638 46.1839C156.826 47.2017 154.708 47.5843 152.631 47.5396C151.156 47.509 149.511 47.165 148.688 45.9396C148.208 45.2272 148.096 44.3316 148.078 43.4706C147.988 39.5664 149.578 35.7356 152.027 32.6965C154.475 29.6575 157.726 27.3472 161.203 25.5539C162.44 24.9147 163.731 24.3326 165.109 24.129C166.823 23.8807 168.569 24.2451 170.251 24.6318C172.437 25.1325 174.635 25.6821 176.648 26.6673C180.945 28.7904 182.822 32.6497 180.933 37.2989Z"/><path fill="#C3705A" d="M51.7673 62.1119C64.9012 62.1119 75.5483 51.4648 75.5483 38.3309C75.5483 25.197 64.9012 14.5499 51.7673 14.5499C38.6334 14.5499 27.9863 25.197 27.9863 38.3309C27.9863 51.4648 38.6334 62.1119 51.7673 62.1119Z"/><path fill="#ECB4B6" d="M73.0913 84.0995C73.0913 84.0995 51.3112 89.6789 50.7718 90.2061C50.2324 90.7333 32.4379 91.6676 37.6183 80.7735C39.5215 76.7737 40.3133 71.3409 40.5535 66.0669C40.5637 65.8429 40.5739 65.6211 40.582 65.3992C40.9097 56.5589 39.7454 48.3558 39.7454 48.3558C39.7454 48.3558 64.9858 38.3818 63.1274 53.5382C62.6633 57.308 63.048 61.0961 63.8907 64.6583C64.1716 65.847 64.5014 67.0093 64.8678 68.137C67.8152 77.2235 73.0913 84.0995 73.0913 84.0995Z"/><path fill="#000" d="M63.889 64.6623C60.5413 67.1443 56.5158 68.5452 52.3505 68.6776C48.1852 68.81 44.0788 67.6676 40.5803 65.4032C40.908 56.563 39.7437 48.3598 39.7437 48.3598C39.7437 48.3598 64.9841 38.3858 63.1257 53.5423C62.6636 57.3141 63.0483 61.1022 63.889 64.6623Z" opacity=".1"/><path fill="#ECB4B6" d="M51.7002 68.2877C62.9994 68.2877 72.1592 59.1278 72.1592 47.8286C72.1592 36.5294 62.9994 27.3696 51.7002 27.3696C40.401 27.3696 31.2412 36.5294 31.2412 47.8286C31.2412 59.1278 40.401 68.2877 51.7002 68.2877Z"/><path fill="#000" d="M73.0913 84.0996C73.0913 84.0996 51.3112 89.6789 50.7718 90.2061C50.2324 90.7333 32.4379 91.6676 37.6183 80.7735C39.5215 76.7737 40.3133 71.3409 40.5535 66.0669C40.7571 68.823 42.3325 75.4975 42.5341 77.7182C42.5469 77.848 42.5728 77.9763 42.6114 78.1009C42.9066 79.0881 43.9589 80.226 45.227 81.3048L45.3024 81.3679C46.8798 82.691 48.8372 83.4781 50.8914 83.6153C52.9457 83.7525 54.9904 83.2328 56.7298 82.1312C58.5402 80.9906 60.2778 79.7384 61.9326 78.3818C64.3019 76.4257 65.0408 73.7897 65.1324 71.461C65.1703 70.3432 65.0815 69.2247 64.8678 68.1268C67.8152 77.2236 73.0913 84.0996 73.0913 84.0996Z" opacity=".1"/><path fill="#BB1F1F" d="M100.593 99.5125H11.7061C11.7061 99.5125 13.5665 90.4789 13.8311 88.6184C13.9757 87.6006 15.6631 83.9367 18.3968 80.7552C20.6725 78.109 23.6749 75.7783 27.117 75.5972C33.5594 75.2593 40.5351 66.1646 40.5351 66.1646C40.6898 68.8107 42.3223 75.7213 42.5279 77.9889C42.5407 78.1187 42.5666 78.2469 42.6052 78.3716C42.9004 79.3588 43.9528 80.4967 45.2209 81.5755L45.2962 81.6386C46.8732 82.9623 48.8306 83.7499 50.8849 83.8875C52.9393 84.0251 54.9841 83.5055 56.7236 82.4039C58.5337 81.2629 60.2713 80.0107 61.9264 78.6545C64.2957 76.6984 65.0346 74.0624 65.1262 71.7337C65.1729 70.1885 64.9855 68.6451 64.5705 67.1558C64.4545 66.7325 64.367 66.4841 64.3548 66.4617L64.6377 66.5818C64.6377 66.5818 76.6737 75.3346 87.7001 78.913C88.9924 79.3337 90.2118 79.9517 91.3152 80.745C92.209 81.3911 93.0319 82.1301 93.7701 82.9495C95.2626 84.6373 96.4972 86.5367 97.434 88.5858C99.9906 94.0044 100.593 99.5125 100.593 99.5125Z"/><path fill="#000" d="M61.5357 40.9587C62.065 42.9942 62.757 45.2557 64.5748 46.3162C64.8183 46.4329 65.0428 46.586 65.2404 46.7701C65.6882 47.2566 65.5518 48.0158 65.4846 48.6753C65.2526 50.9388 66.2256 53.2329 67.8214 54.8552C69.4173 56.4775 71.577 57.4688 73.8058 57.9247C74.3514 58.0367 74.9641 58.1079 75.4343 57.8006C75.752 57.5591 75.9856 57.2236 76.1019 56.8418C76.7227 55.191 76.4602 53.3367 75.9411 51.6513C75.4221 49.9659 74.6567 48.3578 74.2638 46.6378C73.3295 42.5566 74.5671 38.339 75.1249 34.1885C75.3101 32.8085 75.418 31.3856 75.0618 30.0402C74.5468 28.0901 73.126 26.5269 71.754 25.047C71.0152 24.2511 70.26 23.441 69.3114 22.9199C66.5146 21.3912 62.9138 22.7489 59.9277 21.6355C58.7328 21.1897 57.7171 20.3755 56.5792 19.8035C54.1631 18.5822 51.2991 18.5151 48.6509 19.0707C46.0027 19.6264 43.5214 20.7684 41.0645 21.9001L39.1857 22.751C36.5396 23.9723 33.7041 25.3524 32.2792 27.9069C30.7627 30.6264 31.1841 34.1071 29.6676 36.8266C29.2076 37.6408 28.5664 38.4224 28.4463 39.3588C28.3649 40.0346 28.5725 40.7104 28.7659 41.3638C29.2381 42.9535 29.6493 44.588 29.6127 46.249C29.576 47.91 29.0468 49.6117 27.8703 50.7801C27.3736 51.2727 26.71 51.9037 27.0154 52.5326C27.1155 52.7085 27.2548 52.8589 27.4225 52.9723C28.3887 53.7061 29.5246 54.1841 30.7248 54.362C31.925 54.54 33.1507 54.412 34.2883 53.9901C35.1798 53.6501 36.0225 53.1046 36.5273 52.3006C36.8629 51.7116 37.106 51.0745 37.2479 50.4116C37.8911 48.0158 38.5384 45.5793 38.4875 43.098C38.459 41.6731 38.1985 40.2361 38.4061 38.8234C38.6137 37.4108 39.4381 35.9554 40.8121 35.5666C41.8299 35.2755 42.9189 35.6277 43.9814 35.6175C45.5121 35.6053 47.3889 33.9076 48.8076 34.4064C50.0289 34.8379 50.9958 37.1747 52.0054 38.0703C54.5661 40.3562 58.1405 41.551 61.5357 40.9587Z" opacity=".1"/><path fill="#C3705A" d="M61.5355 40.692C62.0648 42.7275 62.7569 44.989 64.5746 46.0495C64.8146 46.1638 65.0362 46.3134 65.2321 46.4932C65.6799 46.9797 65.5435 47.739 65.4763 48.3985C65.2443 50.662 66.2173 52.956 67.8131 54.5783C69.4089 56.2006 71.5686 57.1919 73.7975 57.6479C74.343 57.7598 74.9557 57.8311 75.4259 57.5237C75.7437 57.2822 75.9773 56.9468 76.0936 56.565C76.7144 54.9142 76.4518 53.0598 75.9328 51.3744C75.4137 49.689 74.6484 48.0809 74.2555 46.3609C73.3212 42.2797 74.5588 38.0621 75.1165 33.9117C75.3018 32.5316 75.4096 31.1088 75.0534 29.7633C74.5384 27.8133 73.1177 26.25 71.7457 24.7702C71.0068 23.9743 70.2516 23.1642 69.3031 22.6431C66.5063 21.1144 62.9055 22.4721 59.9193 21.3586C58.7245 20.9129 57.7088 20.0987 56.5709 19.5267C54.1548 18.3054 51.2908 18.2382 48.6426 18.7939C45.9944 19.3496 43.5131 20.4915 41.0562 21.6233L39.2018 22.4782C36.5557 23.6995 33.7202 25.0796 32.2953 27.6342C30.7789 30.3536 31.2002 33.8343 29.6838 36.5538C29.2237 37.368 28.5825 38.1496 28.4624 39.086C28.381 39.7618 28.5886 40.4376 28.782 41.091C29.2543 42.6807 29.6654 44.3152 29.6288 45.9762C29.5922 47.6372 29.0629 49.3389 27.8864 50.5073C27.3897 50.9999 26.7261 51.6309 27.0315 52.2599C27.1316 52.4357 27.2709 52.5862 27.4386 52.6995C28.4048 53.4333 29.5407 53.9114 30.7409 54.0893C31.9411 54.2672 33.1668 54.1392 34.3044 53.7173C35.1959 53.3774 36.0386 52.8318 36.5435 52.0278C36.879 51.4388 37.1221 50.8017 37.264 50.1389C37.9072 47.743 38.5545 45.3065 38.5037 42.8252C38.4752 41.4004 38.2146 39.9633 38.4222 38.5506C38.6299 37.138 39.4542 35.6826 40.8282 35.2938C41.846 35.0027 42.935 35.3549 43.9975 35.3447C45.5282 35.3325 47.405 33.6349 48.8237 34.1336C50.045 34.5651 51.0119 36.9019 52.0215 37.7975C54.5659 40.0915 58.1403 41.2864 61.5355 40.692Z"/><path fill="#463A3E" d="M129.689 49.3817H83.0552V89.3715H129.689V49.3817Z"/><path fill="#000" d="M129.689 49.3817H83.0552V89.3715H129.689V49.3817Z" opacity=".05"/><path fill="#C17174" d="M123.002 106.91H83.106C83.6209 104.005 85.1272 100.821 88.0624 97.3895C90.3801 94.6916 92.2756 91.6582 93.6845 88.3925C94.0632 87.5199 94.4024 86.6453 94.7023 85.7687C95.584 83.1657 96.1838 80.4756 96.4915 77.7447C96.4915 77.6673 96.5098 77.59 96.518 77.5126C96.7237 75.6256 96.8067 73.7272 96.7663 71.8294C96.7663 71.6931 96.7663 71.5608 96.7663 71.4223C96.6238 66.7657 95.8535 62.1495 94.4764 57.6989L94.4255 57.5401C93.9919 56.1743 93.6744 55.4069 93.6744 55.4069C93.6744 55.4069 94.4662 54.9774 95.773 54.3443L95.8829 54.2914C100.689 51.9831 112.065 47.1671 117.081 50.599L117.162 50.6539C118.917 51.9037 119.861 54.1978 119.418 58.0184C119.418 58.0327 119.418 58.049 119.418 58.0632C119.418 58.1345 119.401 58.2037 119.395 58.2668C119.127 60.9002 118.999 63.5461 119.015 66.1931C119.015 66.3254 119.015 66.4577 119.015 66.6002C119.015 67.2204 119.021 67.8486 119.035 68.4851C119.035 68.5706 119.035 68.6561 119.035 68.7416C119.076 70.7974 119.167 72.9205 119.295 75.0741C119.473 78.0602 119.725 81.1012 120.016 84.0853C120.14 85.3616 120.275 86.6297 120.423 87.8775C120.439 88.024 120.456 88.1747 120.472 88.3192C120.643 89.8397 120.82 91.3297 121.001 92.7749L121.013 92.8686C121.705 98.6087 122.471 103.62 123.002 106.91Z"/><path fill="#000" d="M119.402 58.0266C119.402 58.0409 119.402 58.0571 119.402 58.0714C119.115 60.7758 118.979 63.494 118.995 66.2135C118.995 66.3458 118.995 66.4781 118.995 66.6206C116.316 69.7298 112.721 71.9105 108.725 72.8496C104.73 73.7887 100.54 73.438 96.7565 71.8478C96.7565 71.7114 96.7565 71.5791 96.7565 71.4407C96.6131 66.7282 95.8255 62.0574 94.4157 57.5584C93.9821 56.1926 93.6646 55.4252 93.6646 55.4252C93.6646 55.4252 94.4564 54.9957 95.7632 54.3627C100.522 52.0625 112.135 47.0959 117.146 50.6621C118.899 51.9119 119.843 54.2059 119.402 58.0266Z" opacity=".1"/><path fill="#C17174" d="M104.29 72.951C115.006 72.951 123.692 64.2642 123.692 53.5484C123.692 42.8327 115.006 34.1459 104.29 34.1459C93.574 34.1459 84.8872 42.8327 84.8872 53.5484C84.8872 64.2642 93.574 72.951 104.29 72.951Z"/><path fill="#000" d="M105.318 106.777H63.9253C63.9253 106.777 65.7858 97.7437 66.0504 95.8832C66.1949 94.8654 67.8823 91.2015 70.616 88.02C74.1273 85.219 78.4762 83.676 82.9676 83.6375C90.8837 83.5194 93.1879 86.245 93.8128 88.2602C94.0312 88.9358 94.0869 89.6534 93.9757 90.3547L95.4738 92.5246L105.318 106.777Z" opacity=".1"/><path fill="#1F59BB" d="M105.185 106.91H63.793C63.793 106.91 65.6534 97.876 65.918 96.0155C66.0626 94.9977 67.75 91.3338 70.4837 88.1523C73.995 85.3513 78.3438 83.8083 82.8353 83.7698C90.7514 83.6518 93.0556 86.3773 93.6805 88.3925C93.8988 89.0681 93.9546 89.7858 93.8433 90.487L95.3415 92.6569L105.185 106.91Z"/><path fill="#000" d="M150.37 106.777H107.001C109.069 102.376 114.49 90.6437 114.791 87.9304C114.907 86.88 116.026 85.8948 117.508 85.0582C117.976 84.7903 118.458 84.5471 118.952 84.3295L119.041 84.2888C119.312 84.1694 119.587 84.0588 119.865 83.957C123.617 82.5837 127.739 82.6163 131.468 84.0486C135.028 85.4022 139.61 87.2261 143.176 88.9339L143.205 88.9481C144.121 89.3878 144.974 89.8173 145.725 90.2305C147.227 91.0549 148.324 91.808 148.745 92.4105C148.939 92.6874 149.153 93.9351 149.387 95.8709C149.698 98.4886 150.038 102.372 150.37 106.777Z" opacity=".1"/><path fill="#1F59BB" d="M150.502 106.91H107.133C109.201 102.509 114.622 90.776 114.923 88.0627C115.039 87.0123 116.159 86.0272 117.641 85.1906C118.109 84.9226 118.59 84.6794 119.084 84.4618L119.173 84.4211C119.445 84.3017 119.72 84.1911 119.998 84.0893C123.749 82.7161 127.871 82.7486 131.6 84.1809C135.16 85.5346 139.742 87.3584 143.309 89.0662L143.337 89.0804C144.253 89.5201 145.106 89.9496 145.857 90.3628C147.359 91.1872 148.456 91.9403 148.878 92.5428C149.071 92.8197 149.285 94.0675 149.519 96.0032C149.832 98.6209 150.17 102.507 150.502 106.91Z"/><path fill="#000" d="M143.523 85.6282C143.523 86.2538 143.506 86.88 143.472 87.507C143.453 87.8123 143.43 88.1176 143.403 88.423C143.384 88.6428 143.362 88.8606 143.34 89.0784L143.311 89.3308C142.979 92.2905 142.367 95.2338 142.293 98.2077C142.293 98.3482 142.293 98.4886 142.293 98.6291C142.279 101.422 142.731 104.172 143.344 106.91H118.368C118.327 106.403 118.307 105.892 118.313 105.389C118.313 104.935 118.341 104.481 118.388 104.025C118.773 100.278 120.688 96.7706 120.977 93.0477L120.99 92.8767C121.008 92.5978 121.018 92.3169 121.014 92.036C121.014 92.0116 121.014 91.9872 121.014 91.9607C120.982 90.7298 120.793 89.508 120.45 88.3253C120.434 88.2662 120.418 88.2072 120.401 88.1482C120.052 86.975 119.645 85.8201 119.18 84.6878L119.09 84.4618C118.413 82.7683 117.7 81.089 117.218 79.4056C116.834 78.152 116.636 76.8491 116.629 75.5381C116.629 75.304 116.644 75.07 116.662 74.8359C116.678 74.6445 116.701 74.4532 116.729 74.2598C116.774 73.9578 116.833 73.6582 116.908 73.3622C117.315 71.7582 118.185 70.2539 119.017 68.7639C119.943 67.105 120.827 65.4643 120.985 63.7199C121.005 63.4993 121.013 63.2778 121.008 63.0563C121.001 62.7711 120.974 62.4867 120.926 62.2055C120.713 60.9679 120.076 59.8545 119.552 58.7125C119.5 58.5965 119.447 58.4805 119.396 58.3624C119.396 58.3441 119.379 58.3258 119.373 58.3075C118.356 55.9564 117.765 53.4487 117.144 50.9531C117.118 50.8452 117.091 50.7374 117.063 50.6315C116.91 50.0209 116.754 49.4102 116.587 48.7995C115.675 45.4694 114.376 42.1047 111.905 39.7008C109.434 37.2968 105.493 36.0796 102.399 37.6103C99.7224 38.9436 98.2731 41.9276 97.6197 44.8425C96.9663 47.7574 96.9134 50.8005 96.0646 53.6665C96.0035 53.8755 95.9356 54.0838 95.861 54.2914C95.8244 54.3972 95.7877 54.4949 95.7511 54.611C95.3867 55.6491 94.9369 56.677 94.4524 57.6988L94.4015 57.8067C92.8545 61.0982 91.0572 64.3326 91.0002 67.6403V67.6831C91.0002 67.7726 91.0002 67.8601 91.0002 67.9497C91.0108 68.7358 91.1299 69.5167 91.3544 70.2702C91.7615 71.6259 92.4983 72.8085 93.3573 73.9341C93.5269 74.1553 93.7006 74.3745 93.8784 74.5916C94.7333 75.6419 95.6615 76.6597 96.4737 77.7426L96.5002 77.7772C97.1177 78.577 97.639 79.4467 98.0533 80.3684C98.5443 81.5229 98.8008 82.7635 98.8078 84.0181C98.8148 85.2726 98.5721 86.516 98.094 87.6759C97.8634 88.212 97.599 88.7327 97.3022 89.2351C96.779 90.1389 96.203 91.0182 95.7491 91.9587C95.5964 92.2742 95.46 92.5958 95.342 92.9214C94.3242 95.5432 94.1044 98.4438 93.2739 101.149C92.6306 103.226 91.6297 105.175 90.3163 106.908H63.8545C64.1619 105.403 65.6865 97.9512 65.9267 96.278C66.0712 95.2603 67.7586 91.5963 70.4923 88.4148C70.2623 88.596 70.0404 88.7792 69.8267 88.9624C68.1028 90.4315 66.609 92.151 65.3954 94.0634C65.4544 93.8802 65.5155 93.695 65.5765 93.5118C65.949 92.4004 66.3521 91.2991 66.7612 90.2122C67.9459 87.0816 69.2649 83.8878 71.6261 81.5144C72.9594 80.175 74.5817 79.143 75.8518 77.7446C78.0909 75.2837 79.0171 71.8742 78.9906 68.5319C78.9906 68.1858 78.9764 67.8418 78.954 67.4978C78.7118 63.8339 77.4599 60.3267 76.1043 56.9131C75.3755 55.0812 74.602 53.1556 74.6366 51.2137C74.6388 50.9413 74.6586 50.6693 74.6957 50.3995C75.2554 46.3752 79.3265 43.9652 81.7711 40.7185C85.4066 35.8882 85.6712 28.709 90.4404 25.0003C94.1044 22.1505 99.1932 22.3256 103.82 22.635C108.123 22.924 112.007 23.4838 116.277 24.0822C120.548 24.6807 124.881 25.8043 128.307 28.4362C130.52 30.1338 132.246 32.3831 133.779 34.7138C135.83 37.8362 137.624 41.2844 137.87 45.0114C137.888 45.2781 137.899 45.5427 137.899 45.8053C137.941 50.1613 136.05 54.383 135.8 58.7573C135.79 58.9609 135.782 59.1644 135.78 59.368C135.778 59.3788 135.778 59.3897 135.78 59.4005C135.735 63.1927 137.19 67.1742 139.171 70.3923C141.985 74.9786 143.49 80.2476 143.523 85.6282Z" opacity=".1"/><path fill="#463A3E" d="M143.522 85.6282C143.522 86.1655 143.502 86.7049 143.471 87.2403C143.452 87.5456 143.429 87.8509 143.402 88.1563C143.375 88.4616 143.344 88.7642 143.311 89.0641C142.979 92.0238 142.366 94.9671 142.293 97.941C142.293 98.169 142.293 98.399 142.293 98.627C142.307 101.418 142.779 104.17 143.402 106.907H118.39C118.343 106.401 118.314 105.89 118.31 105.387C118.305 104.843 118.33 104.299 118.386 103.759C118.77 100.011 120.686 96.5039 120.975 92.781C120.995 92.5082 121.009 92.2355 121.011 91.9668C121.011 91.9037 121.011 91.8385 121.011 91.7754C120.985 90.4579 120.781 89.15 120.403 87.8876C120.054 86.7144 119.646 85.5595 119.181 84.4272C118.477 82.6583 117.722 80.9017 117.217 79.1348C116.861 77.9634 116.664 76.7497 116.629 75.5259C116.623 75.2026 116.634 74.8792 116.662 74.557C116.678 74.3656 116.7 74.1743 116.729 73.9809C116.773 73.6789 116.833 73.3793 116.908 73.0833C117.315 71.4793 118.184 69.975 119.017 68.485C119.945 66.824 120.832 65.1793 120.989 63.4329C121.001 63.3005 121.007 63.1662 121.011 63.0258C121.021 62.6515 120.994 62.2772 120.93 61.9083C120.716 60.6707 120.079 59.5572 119.556 58.4153C119.503 58.2993 119.45 58.1833 119.399 58.0652C118.367 55.6999 117.771 53.1799 117.148 50.6559C116.969 49.9353 116.786 49.2148 116.592 48.5003C115.68 45.1702 114.382 41.8055 111.911 39.4015C109.439 36.9976 105.505 35.8048 102.413 37.3436C99.7362 38.6769 98.2869 41.6609 97.6335 44.5758C96.9801 47.4907 96.9272 50.5338 96.0783 53.3998C95.9847 53.7153 95.8748 54.0308 95.771 54.3443C95.3924 55.417 94.9201 56.4816 94.4235 57.54C92.8337 60.917 90.9834 64.2389 91.0221 67.6403V67.683C91.0327 68.4691 91.1519 69.25 91.3763 70.0035C91.7834 71.3592 92.5203 72.5418 93.3792 73.6674C93.5489 73.8886 93.7226 74.1078 93.9003 74.3249C94.7654 75.3875 95.7038 76.4154 96.5221 77.5105C97.1397 78.3103 97.661 79.18 98.0752 80.1017C98.5662 81.2562 98.8227 82.4968 98.8297 83.7514C98.8367 85.0059 98.5941 86.2494 98.1159 87.4092C97.8854 87.9453 97.6209 88.4661 97.3241 88.9684C96.801 89.8722 96.2249 90.7516 95.771 91.692C95.6183 92.0075 95.4819 92.3291 95.3639 92.6548C94.3461 95.2765 94.1263 98.1771 93.2958 100.882C92.6186 103.066 91.5472 105.108 90.1346 106.905H63.793C63.793 106.905 65.6534 97.8718 65.918 96.0113C66.0504 95.0811 67.4773 91.9403 69.8181 88.9623C70.0217 88.6896 70.2537 88.4168 70.4837 88.1481C68.5696 89.661 66.9106 91.4712 65.57 93.5097L65.3888 93.7947C65.8122 92.494 66.2783 91.2095 66.7567 89.9435C67.9414 86.8128 69.2604 83.6191 71.6216 81.2457C72.9548 79.9063 74.5771 78.8743 75.8473 77.4759C78.0212 75.0801 78.9617 71.7765 78.9861 68.5196C78.9861 68.084 78.9861 67.6505 78.9494 67.2189C78.7072 63.555 77.4554 60.0478 76.0997 56.6342C75.4056 54.8796 74.6749 53.0517 74.6321 51.1912C74.6227 50.8327 74.6424 50.4739 74.6911 50.1185C75.2529 46.1167 79.324 43.7168 81.7686 40.46C85.4041 35.6297 85.6687 28.4504 90.4379 24.7417C94.1019 21.892 99.1907 22.067 103.817 22.3764C108.12 22.6655 112.004 23.2252 116.275 23.8237C120.545 24.4221 124.885 25.5437 128.307 28.1675C130.519 29.8753 132.245 32.1144 133.778 34.4471C135.83 37.5696 137.623 41.0177 137.87 44.7448C137.894 45.0989 137.904 45.4524 137.898 45.8053C137.863 50.0656 136.044 54.2059 135.799 58.4927C135.783 58.7817 135.775 59.0687 135.779 59.3598C135.778 59.3706 135.778 59.3815 135.779 59.3924C135.804 63.1051 137.237 66.9767 139.17 70.1134C142.033 74.7806 143.54 80.1528 143.522 85.6282Z"/><path fill="#1E1666" d="M194.961 77.4677C184.987 76.7431 178.677 69 178.677 69C179.208 72.6273 178.345 75.8739 173.694 82.8415C172.048 85.3126 171.349 88.8035 171.146 92.2721L169.314 93.3794L168.941 93.1087C168.719 89.9821 168.021 86.8474 166.391 84.6104C161.742 78.2331 159.674 74.0481 160.213 70.7261C160.213 70.7261 155.098 79.029 145.134 79.6946C135.17 80.3602 126.8 87.4011 126 100.288L129.188 104.672H160.63L160.618 104.74H210.895L214.095 99.95C213.295 85.8805 204.935 78.1924 194.961 77.4677Z"/></g><defs><linearGradient id="paint0_linear" x1="112.975" x2="112.975" y1="107.648" y2="13.811" gradientUnits="userSpaceOnUse"><stop stop-color="gray" stop-opacity=".25"/><stop offset=".54" stop-color="gray" stop-opacity=".12"/><stop offset="1" stop-color="gray" stop-opacity=".1"/></linearGradient><clipPath id="clip0"><rect width="226.148" height="120" fill="#fff"/></clipPath></defs></svg>