<svg xmlns="http://www.w3.org/2000/svg" xmlns:xlink="http://www.w3.org/1999/xlink" id="fd577a60-d552-4fe8-bffb-d9cccd3352c0" width="200" data-name="Layer 1" viewBox="0 0 788.382 719"><defs><linearGradient id="aeee3e51-5d06-43ae-b234-e7a12d326f50" x1="365" x2="365" y1="605" y2="286" gradientUnits="userSpaceOnUse"><stop offset="0" stop-opacity=".12"/><stop offset=".551" stop-opacity=".09"/><stop offset="1" stop-opacity=".02"/></linearGradient><linearGradient id="acb63a3b-00bb-44a8-8877-bb0607d49a63" x1="1117.619" x2="1117.619" y1="-43.058" y2="-102.405" gradientTransform="matrix(-0.64881, 0.76095, 0.76095, 0.64881, 817.40491, -656.85567)" gradientUnits="userSpaceOnUse"><stop offset="0" stop-color="gray" stop-opacity=".25"/><stop offset=".535" stop-color="gray" stop-opacity=".12"/><stop offset="1" stop-color="gray" stop-opacity=".1"/></linearGradient></defs><title>Mail sent</title><polygon fill="#6c63ff" points="125 410 0 268 374 0 748 268 621 410 125 410"/><polygon fill="#514abf" points="125 410 0 268 374 0 748 268 621 410 125 410"/><rect width="730" height="319" y="286" fill="#6c63ff"/><rect width="730" height="319" y="286" fill="url(#aeee3e51-5d06-43ae-b234-e7a12d326f50)"/><polygon fill="#6c63ff" points="748 719 0 719 0 268 374 494 748 268 748 719"/><polygon fill="#3ad29f" points="652.582 116.818 573.252 55.99 363.113 330.042 246.402 240.55 185.573 319.879 341.938 439.598 341.938 439.598 382.036 469.649 652.582 116.818"/><polygon fill="url(#acb63a3b-00bb-44a8-8877-bb0607d49a63)" points="3.153 166.882 .179 168.334 .521 167.726 .26 167.81 .626 167.539 40.653 96.307 61.114 113.753 78.667 130.004 73.627 132.465 79.293 142.459 3.153 166.882"/><polygon fill="#6c63ff" points="59.087 115.617 75.131 130.493 2.411 166.646 41.11 117.046 59.087 115.617"/><polygon points="59.087 115.617 75.131 130.493 2.411 166.646 41.11 117.046 59.087 115.617" opacity=".2"/><polygon fill="#6c63ff" points="40.373 99.66 2.411 166.646 59.087 115.617 40.373 99.66"/><polygon fill="#6c63ff" points="75.599 142.01 2.489 166.16 63.604 120.539 75.599 142.01"/><polygon fill="#6c63ff" points="686.959 38.73 670.942 66.499 788.382 85.622 712.742 32.949 686.959 38.73"/><polygon points="686.959 38.73 670.942 66.499 788.382 85.622 712.742 32.949 686.959 38.73" opacity=".2"/><polygon fill="#6c63ff" points="706.247 8.293 788.382 85.622 686.959 38.73 706.247 8.293"/><polygon fill="#6c63ff" points="675.274 82.821 788.062 84.976 682.769 47.576 675.274 82.821"/></svg>