<svg xmlns="http://www.w3.org/2000/svg" width="150" height="120" fill="none" viewBox="0 0 150 120"><g clip-path="url(#clip0)"><path fill="#3F3D56" d="M149.311 111.502H0V111.849H149.311V111.502Z"/><path fill="#FFB8B8" d="M93.6807 52.0392C93.6807 52.0392 86.9835 57.3013 90.3321 58.4972C93.6807 59.6931 95.8334 54.1919 95.8334 54.1919L93.6807 52.0392Z"/><path fill="#CFCCE0" d="M93.92 50.1256L92.4849 52.5175C92.4849 52.5175 94.8767 52.5175 95.3551 56.1053L97.2686 53.7134L93.92 50.1256Z"/><path fill="#FFB8B8" d="M125.731 104.66L125.971 111.836L123.1 113.51L121.905 112.792L122.144 104.66H125.731Z"/><path fill="#FFB8B8" d="M108.749 102.746L109.228 110.4L102.531 113.271L103.009 109.204C103.009 109.204 104.922 106.095 104.444 102.746H108.749Z"/><path fill="#2F2E41" d="M119.034 45.1028C119.034 45.1028 122.861 55.1486 123.579 61.3674C124.296 67.5862 125.492 84.09 125.492 84.09L127.884 105.378L121.187 106.334L118.317 84.8076L111.859 63.5201L110.424 84.8076L109.228 104.182L103.009 104.421L102.53 84.3292L99.8994 58.7364L101.335 46.5379L119.034 45.1028Z"/><path fill="#2F2E41" d="M122.622 112.314C122.622 112.314 123.014 108.297 125.928 110.545L126.449 110.161L128.841 115.423C128.841 115.423 131.711 119.49 126.688 119.968C121.665 120.446 122.144 115.423 122.144 115.423L121.665 113.271L121.904 111.861L122.622 112.314Z"/><path fill="#2F2E41" d="M108.749 107.53C109.338 107.867 109.826 108.355 110.163 108.944C110.499 109.533 110.672 110.201 110.663 110.879C110.663 113.271 110.424 113.51 110.424 113.51L106.836 114.467C106.836 114.467 104.444 114.227 103.009 115.663C101.574 117.098 94.3982 118.054 94.3982 116.141C94.3982 114.227 100.378 111.118 100.378 111.118C100.378 111.118 102.154 108.119 103.418 108.423C104.683 108.726 105.162 109.205 105.162 109.444C105.162 109.683 104.444 111.357 104.444 111.357C104.444 111.357 108.51 110.401 108.749 107.53Z"/><path fill="#FFB8B8" d="M108.271 15.6829C111.573 15.6829 114.251 13.0057 114.251 9.70327C114.251 6.40081 111.573 3.72363 108.271 3.72363C104.968 3.72363 102.291 6.40081 102.291 9.70327C102.291 13.0057 104.968 15.6829 108.271 15.6829Z"/><path fill="#FFB8B8" d="M112.696 11.2579L115.327 17.2376L108.151 27.5226C108.151 27.5226 107.673 16.2808 106.238 14.3673C104.803 12.4539 112.696 11.2579 112.696 11.2579Z"/><path fill="#CFCCE0" d="M109.347 23.6956L110.543 20.5862L111.5 20.8253L112.696 19.8686L114.37 14.6066L116.762 16.2808L119.872 47.6141L100.498 48.0925L103.129 26.3266L105.52 20.1079L107.247 17.8254L108.391 21.3037L109.347 23.6956Z"/><path fill="#575A89" d="M114.849 37.09L115.581 15.4537C115.581 15.4537 117.001 15.5633 117.48 16.2808C117.958 16.9984 125.851 18.4335 125.851 18.4335L124.416 40.6778C124.416 40.6778 130.396 58.3775 128.243 59.3343C126.09 60.291 122.263 60.0518 122.263 60.0518L114.849 37.09Z"/><path fill="#575A89" d="M103.248 34.3394L105.785 19.7574L100.139 23.5761L101.574 34.1003L100.378 41.2758C100.378 41.2758 95.8334 61.1282 97.2685 61.8458C98.7036 62.5634 100.378 61.8458 100.378 61.8458L103.248 41.7542V34.3394Z"/><path fill="#575A89" d="M101.813 23.0977L100.139 23.576L99.4212 33.1435L98.2253 41.515L92.4849 51.7999C92.4849 51.7999 95.3551 49.8864 96.551 55.3877L102.873 44.3811L101.813 23.0977Z"/><path fill="#FFB8B8" d="M120.47 50.1256C120.47 50.1256 113.772 55.3877 117.121 56.5836C120.47 57.7796 122.622 52.2783 122.622 52.2783L120.47 50.1256Z"/><path fill="#CFCCE0" d="M124.536 52.7567L122.383 55.3877L119.513 50.3648L120.709 48.2122L124.536 52.7567Z"/><path fill="#575A89" d="M124.057 19.2707L125.971 18.314C125.971 18.314 127.406 20.2274 127.645 21.9017C127.884 23.576 129.08 25.7287 129.08 26.9246C129.08 28.1206 132.429 39.3623 132.429 39.3623L124.775 54.9094C124.775 54.9094 123.1 49.1689 119.513 48.6905L125.492 40.319L122.144 34.3394L124.057 19.2707Z"/><path fill="#2F2E41" d="M113.277 4.00595L114.405 3.55452C114.405 3.55452 112.047 0.958825 108.767 1.18455L109.689 0.168829C109.689 0.168829 107.434 -0.734015 105.384 1.63596C104.306 2.8818 103.059 4.34623 102.282 5.99589H101.074L101.578 7.10564L99.8142 8.21539L101.625 8.01606C101.517 8.62377 101.5 9.24418 101.576 9.85678C101.653 10.4696 101.966 11.0282 102.448 11.4148C102.448 11.4148 103.846 8.52019 103.846 8.06876V9.19733C103.846 9.19733 104.974 8.18163 104.974 7.50449L105.589 8.29449L105.896 7.05306L109.689 8.29449L109.074 7.27878L111.432 7.61735L110.509 6.37592C110.509 6.37592 113.174 7.84305 113.277 9.08448C113.379 10.3259 114.16 11.5022 114.16 11.5022C114.16 11.5022 116.25 5.69879 113.277 4.00595Z"/><path fill="#FFB8B8" d="M113.174 9.58372C113.544 9.58372 113.844 9.20892 113.844 8.74657C113.844 8.28423 113.544 7.90942 113.174 7.90942C112.804 7.90942 112.505 8.28423 112.505 8.74657C112.505 9.20892 112.804 9.58372 113.174 9.58372Z"/><path fill="#3F3D56" d="M93.0237 34.6626H83.4939V25.1328H89.9606V25.3597H83.7209V34.4357H92.7968V29.8977H93.0237V34.6626Z"/><path fill="#CE63FF" d="M88.2096 32.1769C87.9894 31.5266 85.2278 29.3162 86.92 28.9447L88.3078 30.7951L94.688 24.4149L95.3297 25.0566L88.2096 32.1769Z"/><path fill="#3F3D56" d="M93.0237 61.6633H83.4939V52.1335H89.9606V52.3606H83.7209V61.4364H92.7968V56.8984H93.0237V61.6633Z"/><path fill="#CE63FF" d="M88.2096 59.1777C87.9894 58.5274 85.2278 56.317 86.92 55.9455L88.3078 57.7959L94.688 51.4158L95.3297 52.0575L88.2096 59.1777Z"/><path fill="#3F3D56" d="M93.0237 88.5507H83.4939V79.0211H89.9606V79.248H83.7209V88.3238H92.7968V83.7858H93.0237V88.5507Z"/><path fill="#CE63FF" d="M88.2096 86.065C87.9894 85.4148 85.2278 83.2044 86.92 82.8329L88.3078 84.6833L94.688 78.3031L95.3297 78.9448L88.2096 86.065Z"/></g><defs><clipPath id="clip0"><rect width="149.311" height="120" fill="#fff"/></clipPath></defs></svg>