<svg xmlns="http://www.w3.org/2000/svg" width="189" height="120" fill="none" viewBox="0 0 189 120"><g clip-path="url(#clip0)"><path fill="#3F3D56" d="M151.375 89.8491H8.20752V90.3556H151.375V89.8491Z"/><path fill="#3F3D56" d="M164.023 0H0V79.6188H164.023V0Z"/><path fill="#000" d="M164.023 6.12453V3.93719H158.979V0H156.786V3.93719H7.2363V0H5.04348V3.93719H0V6.12453H5.04348V73.4943H0V75.6816H5.04348V79.6188H7.2363V75.6816H156.786V79.6188H158.979V75.6816H164.023V73.4943H158.979V6.12453H164.023ZM156.787 73.4943H7.2363V6.12453H156.786L156.787 73.4943Z" opacity=".1"/><path fill="#D0CDE1" d="M98.3599 10.4991H72.4976V35.0386H98.3599V10.4991Z"/><path fill="#1F59BB" d="M95.4211 13.4308H75.4365V28.6748H95.4211V13.4308Z"/><path fill="#F2F2F2" d="M86.8401 15.9359H79.834V22.9245H86.8401V15.9359Z"/><path fill="#3F3D56" d="M82.5161 17.6835V26.1696H91.0235V17.6835H82.5161ZM90.6545 25.8015H82.8851V18.0516H90.6545V25.8015Z"/><path fill="#F2F2F2" d="M86.2868 30.1879H75.4165V30.7585H86.2868V30.1879Z"/><path fill="#3F3D56" d="M85.4289 13.0673C86.0608 13.0673 86.5731 12.5563 86.5731 11.9259C86.5731 11.2956 86.0608 10.7845 85.4289 10.7845C84.797 10.7845 84.2847 11.2956 84.2847 11.9259C84.2847 12.5563 84.797 13.0673 85.4289 13.0673Z"/><path fill="#D0CDE1" d="M108.114 45.8926H82.2515V70.4321H108.114V45.8926Z"/><path fill="#1F59BB" d="M105.175 48.8241H85.1904V64.0681H105.175V48.8241Z"/><path fill="#F2F2F2" d="M96.0411 65.8666H85.1709V66.4373H96.0411V65.8666Z"/><path fill="#F2F2F2" d="M96.0411 67.5786H85.1709V68.1493H96.0411V67.5786Z"/><path fill="#3F3D56" d="M88.7465 58.733C90.0104 58.733 91.035 57.711 91.035 56.4502C91.035 55.1895 90.0104 54.1675 88.7465 54.1675C87.4826 54.1675 86.458 55.1895 86.458 56.4502C86.458 57.711 87.4826 58.733 88.7465 58.733Z"/><path fill="#F2F2F2" d="M95.183 58.733C96.4469 58.733 97.4715 57.711 97.4715 56.4502C97.4715 55.1895 96.4469 54.1675 95.183 54.1675C93.9191 54.1675 92.8945 55.1895 92.8945 56.4502C92.8945 57.711 93.9191 58.733 95.183 58.733Z"/><path fill="#FF6584" d="M101.619 58.733C102.883 58.733 103.908 57.711 103.908 56.4502C103.908 55.1895 102.883 54.1675 101.619 54.1675C100.355 54.1675 99.3306 55.1895 99.3306 56.4502C99.3306 57.711 100.355 58.733 101.619 58.733Z"/><path fill="#3F3D56" d="M95.1828 48.4606C95.8148 48.4606 96.327 47.9496 96.327 47.3192C96.327 46.6889 95.8148 46.1779 95.1828 46.1779C94.5509 46.1779 94.0386 46.6889 94.0386 47.3192C94.0386 47.9496 94.5509 48.4606 95.1828 48.4606Z"/><path fill="#D0CDE1" d="M68.5333 38.2252H42.6709V62.7647H68.5333V38.2252Z"/><path fill="#1F59BB" d="M65.5944 41.1567H45.6099V56.4008H65.5944V41.1567Z"/><path fill="#F2F2F2" d="M54.2714 55.4001C56.951 55.4001 59.1233 53.2332 59.1233 50.5603C59.1233 47.8873 56.951 45.7205 54.2714 45.7205C51.5917 45.7205 49.4194 47.8873 49.4194 50.5603C49.4194 53.2332 51.5917 55.4001 54.2714 55.4001Z"/><path fill="#3F3D56" d="M55.7014 54.2933C54.4982 54.2933 53.3221 53.9374 52.3217 53.2707C51.3213 52.6039 50.5416 51.6562 50.0812 50.5474C49.6208 49.4387 49.5003 48.2186 49.7351 47.0415C49.9698 45.8645 50.5491 44.7832 51.3999 43.9346C52.2506 43.086 53.3346 42.5081 54.5146 42.2739C55.6946 42.0398 56.9178 42.16 58.0293 42.6192C59.1409 43.0785 60.0909 43.8563 60.7594 44.8541C61.4278 45.852 61.7846 47.0252 61.7846 48.2253C61.7828 49.8341 61.1413 51.3765 60.0008 52.514C58.8604 53.6516 57.3142 54.2915 55.7014 54.2933ZM55.7014 42.378C54.542 42.378 53.4086 42.7209 52.4446 43.3635C51.4806 44.006 50.7293 44.9192 50.2856 45.9877C49.8419 47.0561 49.7258 48.2318 49.952 49.3661C50.1782 50.5004 50.7365 51.5422 51.5563 52.36C52.3761 53.1778 53.4206 53.7347 54.5578 53.9603C55.6949 54.1859 56.8735 54.0701 57.9447 53.6276C59.0158 53.185 59.9313 52.4355 60.5754 51.4739C61.2196 50.5123 61.5634 49.3818 61.5634 48.2253C61.5616 46.6751 60.9435 45.1888 59.8445 44.0926C58.7455 42.9964 57.2555 42.3797 55.7014 42.378Z"/><path fill="#F2F2F2" d="M56.4601 59.6259H45.5898V60.1965H56.4601V59.6259Z"/><path fill="#F2F2F2" d="M60.751 57.9138H45.5898V58.4845H60.751V57.9138Z"/><path fill="#3F3D56" d="M55.6018 40.7932C56.2337 40.7932 56.746 40.2822 56.746 39.6519C56.746 39.0215 56.2337 38.5105 55.6018 38.5105C54.9698 38.5105 54.4575 39.0215 54.4575 39.6519C54.4575 40.2822 54.9698 40.7932 55.6018 40.7932Z"/><path fill="#D0CDE1" d="M40.1075 10.0618H14.2451V34.6013H40.1075V10.0618Z"/><path fill="#1F59BB" d="M37.1686 12.9933H17.1841V28.2373H37.1686V12.9933Z"/><path fill="#3F3D56" d="M29.3261 24.9271H25.0269V26.198H29.3261V24.9271Z"/><path fill="#3F3D56" d="M34.5235 15.0326H19.8291V15.5772H34.5235V15.0326Z"/><path fill="#3F3D56" d="M34.5235 16.7573H19.8291V17.302H34.5235V16.7573Z"/><path fill="#3F3D56" d="M34.5235 18.4821H19.8291V19.0267H34.5235V18.4821Z"/><path fill="#3F3D56" d="M34.5235 20.2068H19.8291V20.7514H34.5235V20.2068Z"/><path fill="#3F3D56" d="M34.5235 21.9315H19.8291V22.4762H34.5235V21.9315Z"/><path fill="#F2F2F2" d="M28.0348 29.7504H17.1646V30.3211H28.0348V29.7504Z"/><path fill="#F2F2F2" d="M32.3257 31.1771H17.1646V31.7478H32.3257V31.1771Z"/><path fill="#3F3D56" d="M27.1765 12.6298C27.8084 12.6298 28.3207 12.1188 28.3207 11.4884C28.3207 10.8581 27.8084 10.347 27.1765 10.347C26.5445 10.347 26.0322 10.8581 26.0322 11.4884C26.0322 12.1188 26.5445 12.6298 27.1765 12.6298Z"/><path fill="#D0CDE1" d="M119.352 26.0927L138.082 27.4654L143.378 27.8536L143.05 27.5255L144.044 41.8784L144.542 49.0549C144.562 49.3448 144.582 49.6348 144.602 49.9248C144.618 50.1658 144.685 50.3981 144.399 50.4576C143.829 50.5759 143.236 50.6252 142.66 50.6978C141.488 50.8454 140.313 50.9695 139.135 51.0703C134.424 51.4737 129.688 51.5034 124.972 51.1589C123.793 51.0728 122.617 50.9633 121.443 50.8302C121.006 50.7808 120.464 50.7622 120.304 50.2738C120.14 49.7701 120.112 49.1975 120.037 48.6749C119.706 46.3466 119.48 44.0064 119.36 41.6542C119.115 36.9664 119.282 32.2662 119.858 27.6073C119.928 27.0368 120.006 26.4671 120.089 25.8983C120.15 25.4853 119.516 25.3069 119.455 25.7239C118.748 30.5384 118.476 35.4065 118.642 40.2695C118.727 42.7025 118.922 45.1283 119.228 47.5469C119.305 48.1578 119.389 48.7678 119.48 49.3769C119.552 49.8616 119.57 50.4332 119.859 50.8497C120.138 51.2515 120.606 51.3804 121.067 51.4416C121.653 51.5196 122.243 51.5754 122.831 51.6327C127.716 52.1078 132.632 52.1803 137.529 51.8495C138.761 51.7662 139.991 51.6575 141.22 51.5233C141.825 51.4571 142.429 51.3848 143.033 51.3062C143.328 51.2678 143.623 51.228 143.918 51.187C144.194 51.1675 144.467 51.1201 144.733 51.0456C145.287 50.8462 145.287 50.313 145.252 49.816L145.124 47.9675L144.868 44.2706L143.836 29.374L143.707 27.5255C143.705 27.4393 143.67 27.3572 143.608 27.2962C143.547 27.2352 143.465 27.1998 143.378 27.1974L124.648 25.8247L119.352 25.4365C118.929 25.4055 118.931 26.0619 119.352 26.0927V26.0927Z"/><path fill="#D0CDE1" d="M127.378 33.8396C127.473 33.5892 127.235 34.1286 127.354 33.89C127.386 33.8265 127.416 33.7624 127.449 33.6999C127.516 33.5756 127.591 33.4552 127.672 33.3395C127.752 33.2242 127.875 33.1798 127.636 33.3803C127.686 33.3298 127.732 33.2763 127.775 33.2202C127.886 33.0983 128.005 32.9834 128.131 32.8761C128.221 32.7989 128.392 32.7332 128.086 32.9042C128.147 32.8704 128.203 32.8197 128.26 32.781C128.379 32.7017 128.501 32.6283 128.626 32.5607C128.689 32.527 128.753 32.4947 128.817 32.464C128.927 32.4119 129.109 32.394 128.764 32.4819C128.912 32.4441 129.055 32.3744 129.203 32.3325C129.329 32.2969 129.456 32.267 129.584 32.2427C129.699 32.2211 129.907 32.2374 129.516 32.2464C129.586 32.2448 129.657 32.2313 129.727 32.2266C129.869 32.2169 130.01 32.2148 130.152 32.2202C130.223 32.2229 130.293 32.2299 130.363 32.2341C130.598 32.2481 130.008 32.1692 130.363 32.2366C130.503 32.263 130.64 32.2976 130.775 32.3402C130.841 32.3683 130.908 32.3918 130.977 32.4107L130.795 32.3325C130.839 32.3519 130.884 32.3721 130.927 32.3933C131.058 32.4562 131.184 32.5269 131.306 32.6048C131.367 32.6436 131.425 32.6857 131.485 32.7262C131.672 32.8532 131.234 32.5124 131.5 32.7445C131.59 32.8233 131.676 32.9061 131.759 32.9928C131.809 33.0448 131.857 33.098 131.904 33.1525C131.983 33.2442 132.043 33.4118 131.879 33.1115C132.029 33.3863 132.218 33.6356 132.36 33.9189C132.481 34.1606 132.249 33.6188 132.341 33.8732C132.366 33.9418 132.393 34.0095 132.416 34.0786C132.463 34.2169 132.503 34.3571 132.537 34.4993C132.571 34.6417 132.588 34.787 132.619 34.9295C132.533 34.5373 132.596 34.7642 132.604 34.8707C132.612 34.9677 132.617 35.0648 132.618 35.1621C132.62 35.2834 132.617 35.4048 132.61 35.5261C132.605 35.5971 132.589 35.6727 132.59 35.7436C132.585 35.3754 132.617 35.5587 132.594 35.6824C132.567 35.8256 132.533 35.9673 132.492 36.1069C132.471 36.1768 132.448 36.2461 132.423 36.3148C132.402 36.3757 132.378 36.4362 132.354 36.4962C132.425 36.3319 132.431 36.3163 132.371 36.4493C132.008 37.1742 131.555 37.85 131.198 38.5774C130.311 40.3908 130.013 42.4347 130.345 44.425C130.436 44.7551 130.653 45.0365 130.949 45.2093C131.257 45.385 131.621 45.4325 131.963 45.3416C132.705 45.1022 132.996 44.4564 132.882 43.7272C132.842 43.4704 132.903 43.9563 132.877 43.6976C132.866 43.5867 132.854 43.476 132.847 43.3648C132.831 43.1424 132.824 42.9198 132.827 42.6967C132.83 42.5057 132.839 42.3149 132.855 42.1244C132.855 42.0127 132.867 41.9013 132.889 41.7918C132.889 41.7925 132.847 42.0557 132.876 41.9042C132.888 41.8417 132.896 41.7784 132.907 41.7158C132.983 41.2924 133.092 40.8757 133.234 40.4695C133.266 40.3793 133.3 40.2903 133.333 40.2007C133.421 39.9643 133.242 40.3906 133.348 40.1617C133.443 39.9576 133.541 39.7561 133.649 39.5585C134.102 38.7285 134.614 37.9508 134.944 37.0581C135.196 36.3579 135.295 35.6123 135.236 34.8707C135.114 33.3401 134.463 31.787 133.251 30.796C132.624 30.2757 131.883 29.9103 131.088 29.7297C130.293 29.549 129.467 29.5581 128.676 29.7563C127.808 29.9655 127.005 30.3835 126.337 30.9736C125.668 31.5638 125.155 32.3082 124.841 33.1419C124.598 33.7856 125.11 34.6087 125.76 34.7563C126.508 34.9263 127.118 34.5289 127.378 33.8396V33.8396Z"/><path fill="#D0CDE1" d="M131.975 49.4756C132.191 49.4756 132.403 49.4117 132.583 49.2918C132.762 49.1719 132.903 49.0015 132.985 48.8022C133.068 48.6029 133.09 48.3835 133.048 48.1719C133.005 47.9603 132.901 47.7659 132.748 47.6133C132.595 47.4608 132.401 47.3569 132.188 47.3148C131.976 47.2727 131.756 47.2943 131.556 47.3769C131.357 47.4594 131.186 47.5993 131.066 47.7787C130.945 47.9581 130.881 48.169 130.881 48.3847C130.885 48.6731 131.001 48.9487 131.205 49.1526C131.41 49.3565 131.686 49.4724 131.975 49.4756Z"/><path fill="#1F59BB" d="M13.3923 87.6345H7.25244V93.7591H13.3923V87.6345Z"/><path fill="#3F3D56" d="M17.1201 90.2593H9.66455V82.8224H17.1201V90.2593ZM9.98871 89.936H16.796V83.1457H9.98871V89.936Z"/><path fill="#FFB8B8" d="M150.098 54.5739L149.221 57.1986C149.221 57.1986 143.739 63.5419 147.686 64.4168C151.633 65.2918 152.072 57.6361 152.072 57.6361L153.168 55.4488L150.098 54.5739Z"/><path fill="#575A89" d="M156.238 22.8576C156.238 22.8576 154.923 22.6389 154.484 27.8885C154.045 33.1381 153.826 42.3249 153.826 42.3249L148.783 55.2301L155.142 57.1987L158.212 42.5436L156.238 22.8576Z"/><path fill="#FFB8B8" d="M153.388 100.945L152.73 105.101H158.651L158.431 100.945H153.388Z"/><path fill="#FFB8B8" d="M172.465 105.539L172.026 111.226L175.974 111.663V105.101L172.465 105.539Z"/><path fill="#2F2E41" d="M155.8 46.6996L150.756 75.5723L152.072 101.82H158.87V77.9784L165.448 65.7293L170.711 81.0407L172.027 106.632L179.482 105.32L177.728 80.3844C177.728 80.3844 176.412 47.137 175.097 46.6996C173.781 46.2621 155.8 46.6996 155.8 46.6996Z"/><path fill="#2F2E41" d="M154.046 103.789C154.046 103.789 154.046 101.601 152.291 102.914C150.537 104.226 148.344 106.632 148.344 106.632C148.344 106.632 140.012 111.226 145.932 111.882C151.853 112.538 155.581 108.82 155.581 108.82L156.238 109.476C156.238 109.476 159.747 108.82 159.747 107.945C159.722 107.212 159.648 106.481 159.528 105.757C159.528 105.757 159.066 102.047 158.53 102.809C157.993 103.57 154.923 105.101 154.046 103.789Z"/><path fill="#2F2E41" d="M176.193 109.913C176.193 109.913 172.246 107.945 171.369 109.695C170.492 111.445 169.834 114.944 169.834 114.944C169.834 114.944 166.983 120.413 172.027 119.975C177.07 119.538 176.851 116.694 176.851 116.038C176.851 115.382 176.632 113.851 176.851 113.194C177.07 112.538 176.193 109.913 176.193 109.913Z"/><path fill="#FFB8B8" d="M167.531 14.2177C170.922 14.2177 173.671 11.4756 173.671 8.09315C173.671 4.71067 170.922 1.96863 167.531 1.96863C164.141 1.96863 161.392 4.71067 161.392 8.09315C161.392 11.4756 164.141 14.2177 167.531 14.2177Z"/><path fill="#FFB8B8" d="M163.475 11.046L163.255 18.9204L171.15 18.2642V11.046H163.475Z"/><path fill="#D0CDE1" d="M171.588 14.327C171.588 14.327 167.86 16.7331 166.764 17.1706C165.667 17.608 163.255 15.4207 163.255 15.4207C163.255 15.4207 162.597 15.8582 162.597 16.2956C162.597 16.7331 162.159 18.483 162.159 18.483L156.896 35.7629L157.335 48.0119C157.335 48.0119 173.342 49.543 175.096 47.5745C176.851 45.6059 174.219 17.3893 174.219 17.3893L171.588 14.327Z"/><path fill="#000" d="M170.492 18.9204C170.492 18.9204 164.571 21.1077 162.598 19.1391C162.598 19.1391 165.448 19.7953 170.492 18.9204Z" opacity=".1"/><path fill="#575A89" d="M186.061 66.3855C183.649 67.9166 175.754 69.8852 175.754 69.8852C175.754 69.8852 174.893 51.3695 171.807 48.4494C168.74 45.5425 163.731 24.5856 168.235 20.9415C168.255 20.9228 168.277 20.9052 168.299 20.8891L171.149 14.3271C171.149 14.3271 171.588 13.6709 172.465 14.5458C173.175 15.3042 173.834 16.1079 174.439 16.9518L174.564 17.0021L180.579 19.3579L178.166 30.0758C178.166 30.0758 188.473 64.8544 186.061 66.3855Z"/><path fill="#000" d="M174.564 17.0022L172.904 23.0764L168.235 20.9415C168.255 20.9228 168.277 20.9052 168.299 20.8891L171.15 14.3271C171.15 14.3271 171.588 13.6709 172.465 14.5458C173.175 15.3042 173.834 16.1079 174.439 16.9518L174.564 17.0022Z" opacity=".1"/><path fill="#575A89" d="M163.146 15.3113L162.488 22.7482L162.453 23.0872L157.444 70.6508C157.444 70.6508 153.059 69.1196 151.524 67.3698C149.989 65.6199 155.032 46.1526 155.032 46.1526L155.471 21.6545C155.471 21.6545 159.361 18.9226 160.951 17.422C161.323 17.0721 161.569 16.7899 161.611 16.6237C161.83 15.7487 163.146 15.3113 163.146 15.3113Z"/><path fill="#000" d="M163.146 15.3113L162.488 22.7482L162.453 23.0872L159.308 22.6388L160.951 17.422C161.323 17.0721 161.569 16.7899 161.611 16.6237C161.83 15.7487 163.146 15.3113 163.146 15.3113Z" opacity=".1"/><path fill="#FFB8B8" d="M174.877 52.1678L172.465 54.3552C172.465 54.3552 173.562 58.9486 174.877 59.1673C174.877 59.1673 175.755 57.8549 175.974 56.7612C176.193 55.6676 178.167 54.5739 178.167 54.5739L174.877 52.1678Z"/><path fill="#575A89" d="M177.728 18.9204L180.579 19.3579C180.579 19.3579 190.008 35.3254 188.911 41.0124C187.815 46.6995 179.044 56.5425 179.044 56.5425L173.562 52.1678L181.675 41.2312L177.509 28.1072L177.728 18.9204Z"/><path fill="#2F2E41" d="M161.377 8.78104C161.377 8.78104 161.377 3.37985 162.693 2.15232H164.272C164.272 2.15232 166.114 -0.548283 168.483 0.433752C170.851 1.41579 174.799 3.13435 174.536 5.83494C174.273 8.53554 173.452 10.2805 173.452 10.2805C173.452 10.2805 173.013 10.2805 172.036 8.81235C170.729 6.85055 173.746 7.46206 169.799 6.72553C165.851 5.98901 163.483 5.00697 162.957 5.989C162.43 6.97104 161.377 8.78104 161.377 8.78104Z"/><path fill="#2F2E41" d="M164.247 2.51887C164.247 2.51887 164.457 0.940351 165.323 0.600464L164.247 2.51887Z"/><path fill="#2F2E41" d="M164.242 2.84356C164.242 2.84356 163.804 1.31262 164.46 0.656128L164.242 2.84356Z"/></g><defs><clipPath id="clip0"><rect width="189" height="120" fill="#fff"/></clipPath></defs></svg>