<svg width="174" height="120" viewBox="0 0 174 120" fill="none" xmlns="http://www.w3.org/2000/svg">
<g clip-path="url(#clip0)">
<path d="M106.107 70.0431H71.9912C73.5791 54.7983 74.5715 40.3887 71.9912 30.99H106.107C105.521 43.1585 105.589 56.275 106.107 70.0431Z" fill="#3F3D56"/>
<path d="M100.015 37.1733H78.0835V50.191H100.015V37.1733Z" fill="white"/>
<path d="M101.965 54.7472H76.1338V55.1811H101.965V54.7472Z" fill="#1F59BB"/>
<path d="M101.965 56.6998H76.1338V57.1338H101.965V56.6998Z" fill="#1F59BB"/>
<path d="M101.965 58.6526H76.1338V59.0865H101.965V58.6526Z" fill="#1F59BB"/>
<path d="M101.965 60.6052H76.1338V61.0391H101.965V60.6052Z" fill="#1F59BB"/>
<path d="M101.965 62.5579H76.1338V62.9918H101.965V62.5579Z" fill="#1F59BB"/>
<path d="M116.532 66.1442C116.283 66.1488 116.043 66.2241 115.846 66.3592C115.261 64.9829 114.355 64.0984 113.338 64.0984C112.32 64.0984 111.415 64.9829 110.83 66.3592C110.633 66.2241 110.392 66.1488 110.144 66.1442C108.988 66.1442 108.051 67.8845 108.051 70.0313H118.625C118.625 67.8845 117.688 66.1442 116.532 66.1442Z" fill="#1F59BB"/>
<path d="M118.137 70.0315H103.177V69.8145C103.177 66.7094 104.542 64.2771 106.285 64.2771C106.571 64.2788 106.853 64.3438 107.105 64.4663C107.978 62.5624 109.263 61.4769 110.657 61.4769C112.051 61.4769 113.335 62.5624 114.209 64.4663C114.461 64.3438 114.742 64.2788 115.029 64.2771C116.772 64.2771 118.137 66.7094 118.137 69.8145L118.137 70.0315ZM103.667 69.5975H117.647C117.586 66.927 116.412 64.711 115.029 64.711C114.74 64.7175 114.461 64.8061 114.232 64.964L113.974 65.1305L113.862 64.8651C113.064 62.9876 111.895 61.9109 110.657 61.9109C109.418 61.9109 108.25 62.9876 107.452 64.8651L107.339 65.1305L107.081 64.964C106.853 64.8061 106.574 64.7175 106.285 64.711C104.902 64.711 103.727 66.927 103.667 69.5975V69.5975Z" fill="#3F3D56"/>
<path d="M67.7941 66.1442C67.5454 66.1488 67.3049 66.2241 67.1078 66.3592C66.5228 64.9829 65.6173 64.0984 64.5999 64.0984C63.5826 64.0984 62.677 64.9829 62.0921 66.3592C61.895 66.2241 61.6544 66.1488 61.4057 66.1442C60.25 66.1442 59.313 67.8845 59.313 70.0313H69.8869C69.8869 67.8845 68.9499 66.1442 67.7941 66.1442Z" fill="#1F59BB"/>
<path d="M69.3997 70.0315H54.4395V69.8145C54.4395 66.7094 55.8047 64.2771 57.5475 64.2771C57.8342 64.2788 58.1159 64.3438 58.3674 64.4663C59.241 62.5624 60.5257 61.4769 61.9195 61.4769C63.3133 61.4769 64.5981 62.5624 65.4717 64.4663C65.7232 64.3438 66.0049 64.2788 66.2916 64.2771C68.0344 64.2771 69.3996 66.7094 69.3996 69.8145L69.3997 70.0315ZM54.9293 69.5975H68.9098C68.8491 66.927 67.6748 64.711 66.2916 64.711C66.0026 64.7175 65.7235 64.8061 65.4951 64.964L65.237 65.1305L65.1243 64.8651C64.3263 62.9876 63.1582 61.9109 61.9195 61.9109C60.6808 61.9109 59.5129 62.9876 58.7148 64.8651L58.6021 65.1305L58.344 64.964C58.1157 64.8061 57.8366 64.7175 57.5475 64.711C56.1643 64.711 54.99 66.927 54.9293 69.5975L54.9293 69.5975Z" fill="#3F3D56"/>
<path d="M174 36.967C174.005 41.5356 172.495 46.0037 169.659 49.8113C166.824 53.619 162.789 56.5967 158.06 58.3711C153.332 60.1455 148.12 60.6378 143.079 59.7861C138.038 58.9344 133.391 56.7767 129.721 53.5835C126.052 50.3903 123.522 46.3036 122.45 41.8359C121.379 37.3682 121.812 32.7181 123.696 28.4687C125.58 24.2193 128.831 20.5596 133.042 17.9485C137.252 15.3374 142.235 13.8909 147.365 13.7906C147.446 13.789 147.527 13.7874 147.61 13.7859C147.726 13.7843 147.844 13.7843 147.962 13.7843C148.257 13.7843 148.553 13.789 148.846 13.7984C149.494 13.8172 150.134 13.8569 150.768 13.9174C151.134 13.9519 151.494 13.9942 151.855 14.0412C151.895 14.0475 151.938 14.0522 151.978 14.0584C153.466 14.2627 154.932 14.583 156.357 15.0155C161.503 16.5779 165.971 19.5345 169.134 23.471C172.298 27.4075 174 32.1266 174 36.967Z" fill="white"/>
<path d="M128.037 38.2185C128.089 38.1461 127.955 37.9882 127.738 37.8659C127.521 37.7436 127.303 37.7032 127.252 37.7756C127.2 37.848 127.335 38.0059 127.551 38.1282C127.768 38.2505 127.986 38.2909 128.037 38.2185Z" fill="#3F3D56"/>
<path d="M127.277 36.8708C127.392 36.7085 127.575 36.5937 127.786 36.5516C127.996 36.5095 128.217 36.5436 128.399 36.6464L138.709 42.4592C138.892 42.5619 139.021 42.725 139.068 42.9124C139.115 43.0999 139.077 43.2963 138.962 43.4586L127.277 36.8708Z" fill="#D0CDE1"/>
<path d="M126.301 37.1783L126.626 36.7223C126.705 36.6114 126.83 36.5329 126.974 36.5042C127.117 36.4754 127.268 36.4987 127.393 36.5689L139.132 43.1873C139.205 43.2285 139.268 43.2821 139.318 43.345C139.367 43.408 139.403 43.479 139.422 43.5541C139.441 43.6292 139.443 43.7069 139.428 43.7828C139.413 43.8586 139.382 43.9312 139.336 43.9962L139.066 44.3751L126.301 37.1783Z" fill="#2F2E41"/>
<path d="M128.049 37.4288L127.925 37.6036L128.71 38.0465L128.835 37.8717L128.049 37.4288Z" fill="#D0CDE1"/>
<path d="M129.129 38.0378L129.005 38.2126L129.79 38.6555L129.915 38.4807L129.129 38.0378Z" fill="#D0CDE1"/>
<path d="M144.688 16.7974C148.736 16.7974 152.016 13.8763 152.016 10.273C152.016 6.66971 148.736 3.74866 144.688 3.74866C140.641 3.74866 137.36 6.66971 137.36 10.273C137.36 13.8763 140.641 16.7974 144.688 16.7974Z" fill="#FFB8B8"/>
<path d="M145.135 14.8879C145.135 14.8879 148.71 19.9005 147.816 21.3327C146.922 22.7648 144.152 26.6635 144.152 26.6635C144.152 26.6635 156.484 18.5479 154.876 16.7974C154.876 16.7974 151.212 14.0126 151.033 12.2622L145.135 14.8879Z" fill="#FFB8B8"/>
<path d="M155.009 59.2915C149.064 60.7697 142.723 60.3286 137.108 58.0462L137.671 44.6535L137.713 43.6118L137.729 43.2735L137.748 42.7753L137.762 42.4574C137.762 42.4574 137.785 42.4558 137.829 42.4542C137.949 42.4464 138.225 42.4292 138.621 42.4088C139.08 42.3853 139.698 42.3555 140.417 42.3289C140.588 42.3226 140.764 42.3164 140.945 42.3085C144.735 42.1832 150.653 42.1566 151.436 43.1732L151.535 43.7716L151.693 44.738L152.017 46.7133C152.017 46.7133 155.697 53.2295 155.009 59.2915Z" fill="#2F2E41"/>
<path d="M161.757 24.913L155.427 37.3833L152.678 42.7969L151.659 44.8044L136.914 44.6453L138.433 35.4952C136.288 30.5622 141.382 28.573 141.382 28.573L145.671 24.5033V25.1517C145.671 25.1517 149.872 20.6961 151.748 18.15C153.625 15.6039 156.217 16.5587 156.217 16.5587C160.685 16.1608 161.757 24.913 161.757 24.913Z" fill="#575A89"/>
<path opacity="0.2" d="M155.426 37.3834L152.678 42.797C151.795 41.3266 151.123 39.6613 151.123 38.6779C151.123 35.9727 154.161 37.4048 154.161 37.4048C154.161 37.4048 151.703 25.4303 151.703 21.8498C151.703 19.4716 153.93 30.026 155.426 37.3834Z" fill="black"/>
<path d="M152.999 38.2801L139.684 38.0414C139.684 38.0414 129.943 38.7575 131.373 42.2583C132.803 45.7592 140.578 42.2583 140.578 42.2583L156.127 44.4066L152.999 38.2801Z" fill="#FFB8B8"/>
<path d="M155.502 17.1953C155.502 17.1953 150.854 17.5135 150.854 21.094C150.854 24.6744 155.055 37.4049 155.055 37.4049C155.055 37.4049 152.016 35.9727 152.016 38.6779C152.016 41.3831 157.11 49.2601 157.646 44.0088C157.646 44.0088 165.332 47.3505 164.885 41.0649C164.438 34.7792 159.612 21.4918 159.612 21.4918C159.612 21.4918 159.076 16.9566 155.502 17.1953Z" fill="#575A89"/>
<path d="M144.932 9.56335C144.419 9.12119 144.428 8.37545 144.015 7.85712C143.365 7.04317 142.013 7.09773 140.903 7.23825C140.165 7.33165 139.416 7.42776 138.731 7.68749C138.425 7.79978 138.152 7.97392 137.934 8.19619C137.716 8.41846 137.559 8.68278 137.475 8.96831C137.388 9.28895 137.196 8.37918 137.001 7.20089C136.801 5.99864 137.035 4.77092 137.669 3.69463C138.303 2.61833 139.305 1.74904 140.529 1.21199C140.544 1.20562 140.558 1.19935 140.573 1.19315C141.828 0.649823 143.144 0.169981 144.532 0.0351494C145.92 -0.0996818 147.401 0.144444 148.49 0.922855C148.987 1.27862 149.392 1.73535 149.925 2.0472C150.862 2.59513 152.049 2.62167 153.163 2.73718C154.422 2.86782 155.685 3.14214 156.772 3.72297C157.859 4.30379 158.76 5.22011 159.062 6.31651C159.415 7.59544 158.84 9.10728 157.427 9.66226C157.181 9.75465 156.962 9.89753 156.789 10.0793C155.629 11.3415 157.501 12.0321 157.773 13.1308C158 14.0476 157.009 14.8777 155.994 15.1301C154.102 15.6002 151.901 14.6638 151.123 13.0583C150.775 12.3392 150.696 11.5436 150.601 10.765C150.493 9.87366 147.867 8.25933 149.639 9.47365C149.983 9.703 150.254 10.0081 150.426 10.359C150.965 11.5083 149.846 12.1607 149.246 12.9812C148.919 13.4427 148.744 13.9765 148.741 14.5221C148.737 15.0676 148.906 15.6031 149.227 16.0677C147.671 15.3439 146.884 13.5297 147.49 12.0626C147.651 11.6726 147.895 11.3121 148.041 10.9176C148.269 10.302 148.067 9.10567 147.047 9.34821C146.318 9.52133 145.696 10.2216 144.932 9.56335Z" fill="#2F2E41"/>
<path d="M52.0768 90.8513C52.0778 95.5078 50.5037 100.057 47.5596 103.905C44.6154 107.754 40.4377 110.724 35.5706 112.429C35.1888 112.565 34.8 112.692 34.4094 112.809C33.9731 112.942 33.5321 113.064 33.0864 113.176C32.7767 113.252 32.4641 113.325 32.1486 113.392C27.3991 114.405 22.426 114.216 17.7906 112.847C17.4264 112.739 17.0657 112.623 16.7086 112.502C16.2283 112.338 15.7532 112.161 15.287 111.971C15.2518 111.959 15.2184 111.944 15.185 111.93C15.002 111.855 14.8243 111.78 14.6431 111.7H14.6413C14.3932 111.594 14.1475 111.483 13.9042 111.368C13.3447 111.105 12.7975 110.825 12.2627 110.527C11.9847 110.373 11.7108 110.214 11.4411 110.049C7.19514 107.497 3.88963 103.886 1.93869 99.6682C-0.0122412 95.4507 -0.521828 90.8143 0.473782 86.3401C1.46939 81.8658 3.92592 77.7527 7.53557 74.516C11.1452 71.2793 15.7475 69.063 20.7656 68.1448C21.2248 68.0602 21.6887 67.9871 22.1573 67.9255C22.4511 67.8847 22.7484 67.8503 23.0458 67.8205C23.2586 67.7986 23.4715 67.7782 23.6879 67.7626H23.6897C24.2685 67.7156 24.8526 67.6863 25.442 67.6748C25.5229 67.6733 25.6039 67.6717 25.6865 67.6701C25.7323 67.6701 25.778 67.6686 25.8238 67.6701H25.8255C25.8959 67.6686 25.9663 67.6686 26.0384 67.6686C26.334 67.6686 26.6296 67.6733 26.9234 67.6827C27.5708 67.7015 28.2112 67.7412 28.8446 67.8017C29.2105 67.8362 29.5712 67.8785 29.9319 67.9255C29.9723 67.9317 30.0145 67.9364 30.055 67.9427C30.1747 67.9599 30.296 67.9772 30.4157 67.996C30.669 68.032 30.9206 68.0743 31.1722 68.1197C31.408 68.162 31.642 68.2059 31.8759 68.2528C32.7408 68.4285 33.5946 68.6444 34.434 68.8998C40.1229 70.6314 44.9664 74.0578 48.1464 78.6005C48.2362 78.7274 48.3241 78.8558 48.4103 78.9858C48.4772 79.083 48.5405 79.1801 48.6039 79.2788C48.6267 79.3116 48.6479 79.3445 48.6672 79.3774C48.6813 79.3962 48.6918 79.415 48.7042 79.4338C48.8203 79.614 48.9329 79.7972 49.042 79.9805C51.0409 83.3272 52.0832 87.0608 52.0768 90.8513Z" fill="white"/>
<path d="M40.1553 82.5712C40.1553 82.5712 46.1994 77.8408 48.4446 81.1472C50.6899 84.4536 42.154 85.7921 41.6608 85.6212C41.1677 85.4502 40.1553 82.5712 40.1553 82.5712Z" fill="#A0616A"/>
<path d="M28.3984 86.0797C28.3984 86.0797 35.551 84.0088 36.7707 83.1676C37.9904 82.3265 39.1142 81.7048 39.3607 81.7903C39.6073 81.8757 41.2241 81.425 41.2241 81.425L43.1399 86.1341C43.1399 86.1341 35.4943 88.034 35.3022 88.4731C35.1102 88.9121 28.3984 86.0797 28.3984 86.0797Z" fill="#575A89"/>
<path d="M32.1486 113.392C27.3991 114.405 22.4259 114.216 17.7905 112.847L18.1072 110.181L18.401 107.69L22.8082 101.623L24.221 99.6796L30.0427 101.564L30.6356 104.893L31.5803 110.201L32.1486 113.392Z" fill="#2F2E41"/>
<path d="M35.5708 112.429C35.189 112.565 34.8002 112.692 34.4096 112.809C33.9733 112.942 33.5323 113.065 33.0866 113.176C32.7769 113.253 32.4644 113.325 32.1488 113.392C27.3993 114.405 22.4262 114.216 17.7908 112.847C17.4266 112.739 17.0659 112.623 16.7088 112.502C16.7575 113.43 16.7257 114.359 16.6138 115.283C16.1055 114.201 15.6627 113.095 15.2872 111.971C15.2608 111.896 15.2362 111.821 15.2116 111.746C15.0884 111.367 14.9793 111.005 14.8808 110.665C14.7682 110.272 14.6714 109.907 14.5905 109.573C14.2685 108.264 14.1665 107.454 14.1665 107.454L17.606 101.094L18.2939 101.165L18.579 101.193L20.3031 101.368L22.8084 101.624L26.8673 102.036L30.6358 104.893L34.012 107.454C34.012 107.454 34.2935 108.306 34.7351 109.717C34.9744 110.475 35.2576 111.395 35.5708 112.429Z" fill="#2F2E41"/>
<path d="M29.4163 68.7151C32.7773 68.7151 35.502 66.2893 35.502 63.2968C35.502 60.3044 32.7773 57.8785 29.4163 57.8785C26.0552 57.8785 23.3306 60.3044 23.3306 63.2968C23.3306 66.2893 26.0552 68.7151 29.4163 68.7151Z" fill="#A0616A"/>
<path d="M24.4442 63.5693L21.2593 69.6357L30.2011 75.1501C30.2011 75.1501 29.1486 68.5827 31.1315 66.9196C33.1144 65.2565 24.4442 63.5693 24.4442 63.5693Z" fill="#A0616A"/>
<path d="M31.3656 75.6509C31.3656 75.6509 27.1321 67.8768 23.6923 67.8768C20.2526 67.8768 11.2563 73.2951 11.5209 74.473C11.7855 75.6509 11.7855 75.8865 11.7855 76.5932C11.7855 77.2999 9.93332 77.2999 11.5209 77.7711C13.1085 78.2422 13.3731 78.7134 13.3731 78.7134L12.0501 108.867C12.0501 108.867 17.8712 110.752 19.988 110.045C22.1047 109.338 24.2215 104.627 24.2215 104.627C24.2215 104.627 23.6923 110.988 25.8091 110.752C27.9259 110.516 35.8637 110.045 36.1283 109.103C36.3929 108.161 34.5408 87.4298 34.5408 87.4298L31.3656 75.6509Z" fill="#575A89"/>
<path d="M16.6137 115.283V115.286C16.3428 117.374 15.5212 119.49 13.373 119.939C9.72412 120.704 11.1246 114.028 11.7826 111.479C11.9374 110.886 12.05 110.516 12.05 110.516L12.2629 110.527L14.8808 110.665L16.5487 110.753C16.5487 110.753 16.6173 111.183 16.67 111.858C16.6859 112.054 16.7 112.27 16.7088 112.502C16.7575 113.43 16.7257 114.359 16.6137 115.283Z" fill="#A0616A"/>
<path d="M17.6066 73.7662L9.93328 91.1989C9.93328 91.1989 8.8749 93.0836 9.93328 94.497C10.9917 95.9105 9.40409 104.391 10.4625 106.276C11.5209 108.161 11.5209 111.459 11.5209 111.459L17.6066 111.93L18.9295 91.199L25.809 78.0066C25.809 78.0066 25.2799 72.5883 17.6066 73.7662Z" fill="#575A89"/>
<path opacity="0.1" d="M19.591 73.1774C19.591 73.1774 14.8283 74.3553 13.2407 78.5957L19.591 73.1774Z" fill="black"/>
<path d="M25.4281 65.7688C26.0202 65.7373 26.5984 65.9155 27.1864 65.985C29.29 66.2336 31.4784 64.8746 31.9429 63.031C31.9802 62.7855 32.0623 62.5471 32.1862 62.3253C32.51 61.8546 33.2473 61.7649 33.8552 61.8731C34.463 61.9813 35.0392 62.2346 35.6582 62.2635C36.614 62.3082 37.5315 61.7843 38.0409 61.0629C38.5503 60.3415 38.6945 59.4538 38.6257 58.6038L38.1675 59.032C37.9814 58.6813 37.9095 58.2911 37.9601 57.9059C37.7173 57.8483 37.4619 57.8472 37.2185 57.9026C36.9751 57.9581 36.7517 58.0683 36.5698 58.2226C36.1658 58.2609 36.4707 57.5554 36.1706 57.3116C36.0449 57.2095 35.8522 57.2288 35.6821 57.2302C34.8226 57.2376 34.1273 56.6523 33.45 56.1811C32.2765 55.3666 30.9041 54.8092 29.4439 54.5542C28.4734 54.3857 27.4414 54.3586 26.5209 54.6804C25.765 54.9446 25.1323 55.4259 24.547 55.927C23.106 57.1607 21.8299 58.6102 21.2304 60.3082C20.7431 61.699 20.7293 63.1871 21.1908 64.5848C21.4323 65.3107 22.1603 67.7967 23.2261 67.8546C24.5653 67.9273 23.7613 65.8573 25.4281 65.7688Z" fill="#2F2E41"/>
<path opacity="0.1" d="M25.8605 83.0978L19.6287 91.2354L17.6357 110.137L25.8605 83.0978Z" fill="black"/>
<path d="M50.6891 78.2803C50.8382 78.0942 50.8956 77.903 50.8172 77.8532C50.7388 77.8034 50.5544 77.9139 50.4053 78.1C50.2561 78.286 50.1988 78.4773 50.2772 78.527C50.3555 78.5768 50.54 78.4663 50.6891 78.2803Z" fill="#3F3D56"/>
<path d="M42.3784 87.0471C42.2028 86.9355 42.0841 86.7664 42.0485 86.5769C42.0129 86.3875 42.0633 86.1932 42.1887 86.0368L49.2765 77.1922C49.4018 77.0358 49.5918 76.9302 49.8046 76.8985C50.0174 76.8668 50.2356 76.9117 50.4113 77.0233L42.3784 87.0471L42.3784 87.0471Z" fill="#D0CDE1"/>
<path d="M42.6694 87.9312L42.2593 87.6706C42.1172 87.5803 42.0211 87.4435 41.9923 87.2901C41.9635 87.1368 42.0043 86.9795 42.1058 86.8529L50.1758 76.7827C50.2614 76.6758 50.3913 76.6036 50.5367 76.5819C50.6821 76.5603 50.8312 76.591 50.9513 76.6672L51.4448 76.9807L42.6694 87.9311L42.6694 87.9312Z" fill="#2F2E41"/>
<path d="M49.3923 78.4733L49.5815 78.5935L50.1215 77.9196L49.9323 77.7994L49.3923 78.4733Z" fill="#D0CDE1"/>
<path d="M48.6497 79.3999L48.8389 79.5201L49.3789 78.8462L49.1896 78.726L48.6497 79.3999Z" fill="#D0CDE1"/>
<path d="M128.257 69.705H49.7896V70.0182H128.257V69.705Z" fill="#3F3D56"/>
</g>
<defs>
<clipPath id="clip0">
<rect width="174" height="120" fill="white"/>
</clipPath>
</defs>
</svg>
