<?xml version="1.0" standalone="no"?>
<!DOCTYPE svg PUBLIC "-//W3C//DTD SVG 20010904//EN"
 "http://www.w3.org/TR/2001/REC-SVG-20010904/DTD/svg10.dtd">
<svg version="1.0" xmlns="http://www.w3.org/2000/svg"
 width="91.000000pt" height="91.000000pt" viewBox="0 0 91.000000 91.000000"
 preserveAspectRatio="xMidYMid meet">
<metadata>
Created by potrace 1.11, written by Peter Selinger 2001-2013
</metadata>
<g transform="translate(0.000000,91.000000) scale(0.100000,-0.100000)"
fill="#000000" stroke="none">
<path d="M340 795 c-105 -33 -177 -138 -167 -246 12 -140 112 -233 246 -228
74 3 84 -4 78 -52 -2 -21 -3 -39 -1 -39 3 0 124 248 124 255 0 6 -26 -2 -75
-25 -113 -53 -210 -7 -199 94 4 37 29 65 82 88 42 19 49 31 33 57 -13 21 -85
8 -125 -23 -89 -67 -84 -201 8 -264 57 -39 147 -27 209 26 9 8 17 11 17 6 0
-14 -62 -51 -109 -65 -121 -36 -240 92 -199 214 25 75 101 137 167 137 32 0
52 23 43 50 -11 33 -56 38 -132 15z"/>
<path d="M510 790 c-11 -11 -20 -29 -20 -40 0 -26 34 -60 60 -60 26 0 60 34
60 60 0 11 -9 29 -20 40 -11 11 -29 20 -40 20 -11 0 -29 -9 -40 -20z"/>
<path d="M89 213 c-9 -2 -21 -16 -28 -30 -9 -21 -9 -30 4 -49 16 -24 65 -34
65 -13 0 6 -6 9 -12 6 -20 -7 -48 12 -48 32 0 26 25 44 50 36 11 -3 20 -4 20
-1 0 10 -35 23 -51 19z"/>
<path d="M172 204 c-30 -20 -29 -59 3 -80 30 -20 58 -11 73 22 10 22 9 28 -13
49 -28 29 -33 30 -63 9z m58 -25 c14 -26 -4 -51 -34 -47 -21 3 -32 28 -22 54
8 21 44 17 56 -7z"/>
<path d="M288 212 c-14 -3 -18 -14 -18 -51 0 -51 -3 -49 56 -42 14 1 31 41 27
62 -5 19 -41 37 -65 31z m39 -24 c13 -21 12 -37 -3 -49 -20 -17 -41 -4 -38 23
1 12 3 26 3 31 2 12 29 8 38 -5z"/>
<path d="M509 206 c-19 -9 -24 -19 -22 -45 1 -19 7 -38 15 -42 19 -13 51 -7
56 11 4 12 2 12 -8 3 -19 -18 -50 2 -50 32 0 24 30 42 50 30 5 -3 10 -2 10 3
0 17 -26 21 -51 8z"/>
<path d="M372 163 c3 -42 6 -48 26 -49 12 -1 25 3 28 7 3 5 -4 9 -15 9 -12 0
-21 7 -21 15 0 8 9 15 21 15 11 0 18 4 14 10 -3 5 -12 7 -20 3 -9 -3 -15 1
-15 10 0 9 10 18 23 20 15 3 12 5 -11 6 l-33 1 3 -47z"/>
<path d="M580 162 c0 -48 0 -49 33 -48 17 1 36 7 40 13 11 18 44 16 51 -3 4
-9 9 -14 12 -11 3 3 -4 27 -16 54 l-22 48 -20 -42 c-13 -30 -25 -43 -38 -43
-20 0 -24 12 -20 58 1 12 -3 22 -9 22 -6 0 -11 -21 -11 -48z m104 3 c3 -8 1
-15 -4 -15 -6 0 -10 7 -10 15 0 8 2 15 4 15 2 0 6 -7 10 -15z"/>
<path d="M734 160 c-1 -51 11 -57 18 -10 l3 24 27 -27 c15 -15 30 -27 33 -27
3 0 5 20 5 45 0 25 -4 45 -9 45 -5 0 -8 -11 -5 -25 6 -31 -3 -31 -40 0 -16 14
-30 25 -31 25 -1 0 -1 -23 -1 -50z"/>
<path d="M0 160 c0 -5 5 -10 11 -10 5 0 7 5 4 10 -3 6 -8 10 -11 10 -2 0 -4
-4 -4 -10z"/>
</g>
</svg>
