<svg xmlns="http://www.w3.org/2000/svg" width="32" height="32" fill="none" viewBox="0 0 32 32"><path fill="#fff" d="M29.3541 13.5281L16.9424 2.10926C16.5389 1.73804 16.0075 1.53714 15.4594 1.54856C14.9112 1.55997 14.3887 1.78281 14.001 2.17051L2.58581 13.5858L2 14.1715V30.9999H13V20.4999H19V30.9999H30V14.1223L29.3541 13.5281ZM15.5024 3.54813C15.52 3.54813 15.5091 3.55194 15.5016 3.55938C15.4937 3.55194 15.4847 3.54813 15.5024 3.54813ZM28 28.9999H21V20.4999C21 19.9695 20.7893 19.4608 20.4142 19.0857C20.0391 18.7107 19.5304 18.4999 19 18.4999H13C12.4696 18.4999 11.9609 18.7107 11.5858 19.0857C11.2107 19.4608 11 19.9695 11 20.4999V28.9999H4V14.9999L15.5024 3.58469C15.5032 3.58394 15.5033 3.58326 15.5039 3.58251L28 14.9999V28.9999Z"/></svg>