<svg xmlns="http://www.w3.org/2000/svg" width="30" height="28" fill="none" viewBox="0 0 30 28"><path stroke="#fff" stroke-width="2" d="M3.6 24.7076V24.7168L3.60017 24.726C3.60822 25.164 3.73943 25.5916 3.97972 25.9587C4.22009 26.3258 4.56012 26.6177 4.96125 26.7983C5.36252 26.979 5.80716 27.0402 6.24254 26.9741C6.65609 26.9113 7.04334 26.7364 7.36377 26.47L12.717 22.7537H18.9C19.859 22.7537 20.776 22.3677 21.4501 21.6848C21.7051 21.4266 21.9174 21.1339 22.0829 20.8178L22.2293 20.9195L22.636 21.2022C22.9565 21.4687 23.3438 21.6437 23.7575 21.7065C24.1928 21.7726 24.6375 21.7113 25.0387 21.5307C25.4399 21.3501 25.7799 21.0582 26.0203 20.691C26.2606 20.324 26.3918 19.8963 26.3998 19.4583L26.4 19.4491V19.4399V17.3431C26.9816 17.1733 27.5162 16.8567 27.9501 16.4172C28.6238 15.7347 29 14.8119 29 13.8522V4.63383C29 3.67422 28.6238 2.75135 27.9501 2.06891C27.276 1.38603 26.359 1 25.4 1H11.1C10.141 1 9.22397 1.38603 8.54986 2.06891C7.87618 2.75135 7.5 3.67422 7.5 4.63383V5.95075V6.26767H4.6C3.64102 6.26767 2.72397 6.6537 2.04986 7.33658C1.37619 8.01902 1 8.94189 1 9.9015V19.1199C1 20.0795 1.37619 21.0024 2.04986 21.6848C2.48378 22.1244 3.01837 22.441 3.6 22.6108V24.7076Z"/></svg>