<svg xmlns="http://www.w3.org/2000/svg" width="27" height="30" fill="none" viewBox="0 0 27 30"><path fill="#fff" d="M24.3 30H2.7C1.98413 29.9994 1.29779 29.7735 0.791601 29.3717C0.285408 28.97 0.000714794 28.4253 0 27.8571V2.14286C0.000714794 1.57471 0.285408 1.03 0.791601 0.628255C1.29779 0.226514 1.98413 0.000567296 2.7 0H24.3C25.0159 0.000567296 25.7022 0.226514 26.2084 0.628255C26.7146 1.03 26.9993 1.57471 27 2.14286V19.9479L20.25 17.2693L13.5 19.9479V2.14286H2.7V27.8571H24.3V23.5714H27V27.8571C26.9989 28.4252 26.7141 28.9698 26.208 29.3714C25.7019 29.7731 25.0158 29.9991 24.3 30ZM20.25 14.8736L24.3 16.4807V2.14286H16.2V16.4807L20.25 14.8736Z"/></svg>