<svg xmlns="http://www.w3.org/2000/svg" width="32" height="32" fill="none" viewBox="0 0 32 32"><path fill="#fff" d="M28.9088 19.7688L24.8873 17.1375L26.4357 14.2989C26.8092 13.5901 27.0048 12.8012 27.0058 12V7.50002C27.0089 6.23471 26.6425 4.99604 25.9514 3.9361C25.2604 2.87617 24.2748 2.04111 23.1158 1.53348C21.9568 1.02584 20.6748 0.867722 19.4272 1.07854C18.1795 1.28936 17.0206 1.85993 16.0928 2.7202L17.452 4.18752C18.095 3.59306 18.8974 3.19913 19.7609 3.05402C20.6244 2.90891 21.5115 3.01893 22.3135 3.37058C23.1154 3.72224 23.7973 4.30026 24.2755 5.03376C24.7537 5.76727 25.0076 6.62438 25.0058 7.50002V12C25.0056 12.4665 24.8939 12.9262 24.6799 13.3408L22.2476 17.8L27.8138 21.4421C28.1812 21.6826 28.4827 22.0111 28.6909 22.3977C28.8991 22.7843 29.0073 23.2168 29.0058 23.656V27H24.5058V29H31.0058V23.6559C31.0078 22.8846 30.8171 22.1249 30.4508 21.4461C30.0846 20.7672 29.5546 20.1907 28.9088 19.7688Z"/><path fill="#fff" d="M19.9088 21.7687L15.8874 19.1375L17.4357 16.2988C17.8091 15.59 18.0048 14.8011 18.0058 14V9.49995C18.0045 7.7751 17.3191 6.12118 16.0999 4.90105C14.8807 3.68092 13.2274 2.99421 11.5025 2.99158C7.92019 2.99158 5.00581 5.91126 5.00581 9.49995V14C5.002 14.8007 5.19551 15.5901 5.56925 16.2984L7.126 19.1524L3.12794 21.7687C2.48294 22.1899 1.95335 22.7656 1.5872 23.4433C1.22106 24.1211 1.02996 24.8796 1.03125 25.65L1 31H22.0058V25.6558C22.0078 24.8845 21.8171 24.1249 21.4508 23.446C21.0846 22.7672 20.5545 22.1906 19.9088 21.7687ZM20.0058 29H3.01163L3.031 25.6558C3.02949 25.2167 3.13775 24.7842 3.34593 24.3976C3.55412 24.0109 3.85563 23.6825 4.22306 23.442L9.76569 19.8152L7.325 15.3407C7.11342 14.9256 7.00399 14.4659 7.00581 14V9.49995C7.00581 8.30648 7.47992 7.16189 8.32383 6.31797C9.16775 5.47406 10.3123 4.99995 11.5058 4.99995C12.6993 4.99995 13.8439 5.47406 14.6878 6.31797C15.5317 7.16189 16.0058 8.30648 16.0058 9.49995V14C16.0056 14.4665 15.8939 14.9262 15.6799 15.3407L13.2476 19.8L18.8137 23.4421C19.1812 23.6825 19.4827 24.011 19.6909 24.3976C19.899 24.7843 20.0073 25.2168 20.0058 25.6559V29Z"/></svg>