<svg xmlns="http://www.w3.org/2000/svg" width="32" height="32" fill="none" viewBox="0 0 32 32"><path fill="#fff" d="M15.322 10.5C14.2342 10.5 13.1708 10.8226 12.2663 11.4269C11.3619 12.0313 10.6569 12.8902 10.2406 13.8952C9.82434 14.9002 9.71543 16.0061 9.92764 17.073C10.1399 18.1399 10.6637 19.1199 11.4329 19.8891C12.2021 20.6583 13.1821 21.1821 14.249 21.3943C15.3159 21.6065 16.4217 21.4976 17.4267 21.0813C18.4317 20.6651 19.2907 19.9601 19.895 19.0556C20.4994 18.1512 20.822 17.0878 20.822 16C20.8203 14.5418 20.2403 13.1438 19.2092 12.1127C18.1781 11.0816 16.7801 10.5017 15.322 10.5ZM15.322 19.5C14.6297 19.5 13.953 19.2947 13.3775 18.9101C12.8019 18.5256 12.3533 17.9789 12.0884 17.3394C11.8235 16.6999 11.7542 15.9961 11.8892 15.3172C12.0243 14.6383 12.3576 14.0146 12.8471 13.5251C13.3366 13.0356 13.9602 12.7023 14.6391 12.5673C15.3181 12.4322 16.0218 12.5015 16.6614 12.7664C17.3009 13.0313 17.8475 13.4799 18.2321 14.0555C18.6167 14.6311 18.822 15.3078 18.822 16C18.8209 16.9279 18.4518 17.8176 17.7957 18.4737C17.1395 19.1299 16.2499 19.499 15.322 19.5Z"/><path fill="#fff" d="M29.0438 20.1449L27.0581 18.5104C27.4101 16.8553 27.4101 15.1447 27.0581 13.4896L29.0438 11.8551C29.2728 11.6674 29.4275 11.4044 29.4802 11.1131C29.533 10.8217 29.4803 10.5212 29.3316 10.2651L27.2934 6.73494C27.146 6.47808 26.912 6.2821 26.6333 6.18212C26.3546 6.08213 26.0493 6.08468 25.7723 6.18932L23.3623 7.09225C22.1068 5.95793 20.6256 5.10187 19.016 4.58025L18.5931 2.04457C18.5453 1.75234 18.3949 1.48671 18.1689 1.2953C17.943 1.10388 17.6563 0.999199 17.3601 1H13.2838C12.9876 0.999209 12.7009 1.10389 12.475 1.29529C12.249 1.48669 12.0987 1.75229 12.0508 2.0445L11.6281 4.58025C10.0185 5.10186 8.53736 5.95791 7.28188 7.09225L4.87157 6.18919C4.59456 6.08463 4.28938 6.08212 4.01069 6.18211C3.73201 6.2821 3.49803 6.47806 3.35069 6.73488L1.3125 10.2653C1.16385 10.5214 1.11121 10.822 1.16401 11.1133C1.2168 11.4046 1.37158 11.6676 1.60063 11.8552L3.58607 13.4896C3.23407 15.1447 3.23407 16.8553 3.58607 18.5104L1.60044 20.1449C1.37143 20.3326 1.21669 20.5956 1.16393 20.8869C1.11118 21.1783 1.16384 21.4788 1.3125 21.7349L3.35075 25.2651C3.49811 25.5219 3.73212 25.7179 4.01085 25.8179C4.28957 25.9179 4.5948 25.9153 4.87182 25.8107L7.28194 24.9078C8.53742 26.0421 10.0186 26.8981 11.6282 27.4198L12.0508 29.9554C12.0987 30.2477 12.2491 30.5133 12.475 30.7047C12.7009 30.8961 12.9876 31.0008 13.2838 31H17.3601C17.6562 31.0008 17.943 30.8961 18.1689 30.7047C18.3949 30.5133 18.5452 30.2477 18.5931 29.9555L19.0158 27.4198C20.6254 26.8981 22.1066 26.0421 23.3621 24.9078L25.7723 25.8108C26.0493 25.9154 26.3545 25.9179 26.6332 25.8179C26.9119 25.7179 27.1458 25.5219 27.2932 25.2651L29.3313 21.7347C29.4799 21.4787 29.5327 21.1782 29.48 20.8869C29.4273 20.5956 29.2727 20.3326 29.0438 20.1449ZM25.879 23.7149L22.8722 22.5884L22.4169 23.0468C21.1642 24.3095 19.5973 25.215 17.8778 25.6701L17.2528 25.8349L16.725 29H13.9194L13.3918 25.8349L12.7668 25.6701C11.0473 25.215 9.48041 24.3095 8.22769 23.0468L7.77238 22.5884L4.76507 23.7149L3.3625 21.2851L5.83932 19.2461L5.67057 18.6228C5.20649 16.9051 5.20649 15.0949 5.67057 13.3772L5.83932 12.7539L3.3625 10.7149L4.76538 8.28507L7.77219 9.41157L8.2275 8.95319C9.48022 7.69054 11.0471 6.78496 12.7666 6.32988L13.3916 6.16513L13.9191 3H16.725L17.2526 6.16513L17.8776 6.32988C19.5971 6.78496 21.164 7.69054 22.4167 8.95319L22.872 9.41157L25.8788 8.28507L27.2818 10.7149L24.8049 12.7539L24.9737 13.3772C25.4378 15.0949 25.4378 16.9051 24.9737 18.6228L24.8049 19.2461L27.2818 21.2851L25.879 23.7149Z"/></svg>