<svg xmlns="http://www.w3.org/2000/svg" width="32" height="32" fill="none" viewBox="0 0 32 32"><path fill="#fff" d="M16 19.2C24.8363 19.2 32 22.5429 32 26.6667V32H0V26.6667C0 22.5429 7.16373 19.2 16 19.2ZM29.8667 26.6667C29.8667 23.7227 23.6587 21.3333 16 21.3333C8.34133 21.3333 2.13333 23.7227 2.13333 26.6667V29.8667H29.8667V26.6667ZM16 0C17.9803 0 19.8795 0.786665 21.2797 2.18694C22.68 3.58721 23.4667 5.48638 23.4667 7.46667C23.4667 9.44695 22.68 11.3461 21.2797 12.7464C19.8795 14.1467 17.9803 14.9333 16 14.9333C14.0197 14.9333 12.1205 14.1467 10.7203 12.7464C9.32 11.3461 8.53333 9.44695 8.53333 7.46667C8.53333 5.48638 9.32 3.58721 10.7203 2.18694C12.1205 0.786665 14.0197 0 16 0ZM16 2.13333C14.5855 2.13333 13.229 2.69524 12.2288 3.69543C11.2286 4.69562 10.6667 6.05218 10.6667 7.46667C10.6667 8.88116 11.2286 10.2377 12.2288 11.2379C13.229 12.2381 14.5855 12.8 16 12.8C17.4145 12.8 18.771 12.2381 19.7712 11.2379C20.7714 10.2377 21.3333 8.88116 21.3333 7.46667C21.3333 6.05218 20.7714 4.69562 19.7712 3.69543C18.771 2.69524 17.4145 2.13333 16 2.13333Z"/></svg>