<svg xmlns="http://www.w3.org/2000/svg" width="18" height="20" fill="none" viewBox="0 0 18 20"><path fill="#fff" fill-rule="evenodd" d="M0.240493 4.76331L8.76145 9.91439C8.90844 10.0033 9.09044 10.0033 9.23844 9.91439L17.7594 4.76331C18.1024 4.55553 18.0724 4.02442 17.7074 3.86109L9.18744 0.0399998C9.06744 -0.0133333 8.93145 -0.0133333 8.81145 0.0399998L0.291492 3.86109C-0.0725055 4.02442 -0.102505 4.55553 0.240493 4.76331Z" clip-rule="evenodd" opacity=".7"/><path fill="#fff" fill-rule="evenodd" d="M17.7081 8.5068L15.8782 7.64014L9.23919 11.6534C9.09119 11.7423 8.90919 11.7423 8.76119 11.6534L2.12223 7.64014L0.29224 8.5068C-0.072758 8.67902 -0.102758 9.24124 0.24124 9.46013L8.76119 14.9012C8.90919 14.9957 9.09119 14.9957 9.23919 14.9012L17.7591 9.46013C18.1031 9.24124 18.0731 8.67902 17.7081 8.5068Z" clip-rule="evenodd" opacity=".5"/><path fill="#fff" fill-rule="evenodd" d="M17.7081 13.4405L16.1512 12.6917L9.23919 16.8705C9.09119 16.9594 8.90919 16.9594 8.76119 16.8705L1.84923 12.6917L0.29224 13.4405C-0.072758 13.6161 -0.102758 14.1861 0.24124 14.4083L8.76119 19.9283C8.90919 20.0238 9.09119 20.0238 9.23919 19.9283L17.7591 14.4083C18.1031 14.1861 18.0731 13.6161 17.7081 13.4405Z" clip-rule="evenodd" opacity=".3"/></svg>