<svg width="20" height="20" viewBox="0 0 20 20" fill="none" xmlns="http://www.w3.org/2000/svg">
<path fill-rule="evenodd" clip-rule="evenodd" d="M13.7492 20C13.7492 20 14.9992 20 14.9992 18.3333C14.9992 16.6667 13.7492 11.6667 7.49958 11.6667C1.24993 11.6667 0 16.6667 0 18.3333C0 20 1.24993 20 1.24993 20H13.7492ZM1.25618 18.4267V18.4233V18.4267ZM1.27743 18.3333H13.7217C13.7276 18.3324 13.7334 18.3313 13.7392 18.33L13.7492 18.3267C13.748 17.9167 13.5567 16.6833 12.7093 15.5533C11.8943 14.4667 10.3607 13.3333 7.49958 13.3333C4.63724 13.3333 3.10483 14.4667 2.28987 15.5533C1.44242 16.6833 1.25243 17.9167 1.24993 18.3267C1.25908 18.329 1.26824 18.3312 1.27743 18.3333ZM13.7442 18.4267V18.4233V18.4267ZM7.49958 8.33333C8.16259 8.33333 8.79843 7.98214 9.26725 7.35702C9.73606 6.7319 9.99944 5.88405 9.99944 5C9.99944 4.11594 9.73606 3.2681 9.26725 2.64298C8.79843 2.01786 8.16259 1.66667 7.49958 1.66667C6.83658 1.66667 6.20073 2.01786 5.73191 2.64298C5.2631 3.2681 4.99972 4.11594 4.99972 5C4.99972 5.88405 5.2631 6.7319 5.73191 7.35702C6.20073 7.98214 6.83658 8.33333 7.49958 8.33333ZM11.2494 5C11.2494 6.32608 10.8543 7.59785 10.1511 8.53553C9.44786 9.47322 8.49409 10 7.49958 10C6.50507 10 5.5513 9.47322 4.84808 8.53553C4.14486 7.59785 3.74979 6.32608 3.74979 5C3.74979 3.67392 4.14486 2.40215 4.84808 1.46447C5.5513 0.526784 6.50507 0 7.49958 0C8.49409 0 9.44786 0.526784 10.1511 1.46447C10.8543 2.40215 11.2494 3.67392 11.2494 5ZM19.8164 5.24333C19.8746 5.32074 19.9208 5.4127 19.9523 5.51394C19.9838 5.61519 20 5.72372 20 5.83333C20 5.94295 19.9838 6.05148 19.9523 6.15272C19.9208 6.25396 19.8746 6.34592 19.8164 6.42333L16.0666 11.4233C16.0085 11.5009 15.9396 11.5625 15.8637 11.6045C15.7877 11.6465 15.7063 11.6682 15.6241 11.6682C15.5419 11.6682 15.4605 11.6465 15.3846 11.6045C15.3087 11.5625 15.2397 11.5009 15.1817 11.4233L13.3068 8.92333C13.1894 8.76686 13.1235 8.55463 13.1235 8.33333C13.1235 8.11204 13.1894 7.89981 13.3068 7.74333C13.4241 7.58686 13.5833 7.49895 13.7492 7.49895C13.9152 7.49895 14.0744 7.58686 14.1917 7.74333L15.6241 9.655L18.9314 5.24333C18.9895 5.16573 19.0585 5.10416 19.1344 5.06215C19.2103 5.02013 19.2917 4.99851 19.3739 4.99851C19.4561 4.99851 19.5375 5.02013 19.6134 5.06215C19.6894 5.10416 19.7583 5.16573 19.8164 5.24333Z" fill="#07278B"/>
</svg>
