<svg xmlns="http://www.w3.org/2000/svg" width="18" height="18" fill="none" viewBox="0 0 18 18"><path fill="#30507F" fill-rule="evenodd" d="M11.7473 2.82997C10.4177 2.23755 8.93223 2.09078 7.51243 2.41157C6.09263 2.73235 4.81456 3.5035 3.86884 4.60999C2.92312 5.71649 2.36041 7.09905 2.26463 8.55148C2.16886 10.0039 2.54516 11.4484 3.3374 12.6695C4.12964 13.8906 5.29539 14.8229 6.66077 15.3273C8.02615 15.8318 9.51802 15.8813 10.9139 15.4686C12.3097 15.0559 13.5348 14.203 14.4063 13.0372C15.2778 11.8714 15.7492 10.4551 15.75 8.99947V8.3099C15.75 7.89568 16.0858 7.5599 16.5 7.5599C16.9142 7.5599 17.25 7.89568 17.25 8.3099V8.9999C17.249 10.7789 16.6729 12.5104 15.6077 13.9353C14.5425 15.3602 13.0452 16.4026 11.3392 16.907C9.63313 17.4115 7.80974 17.3509 6.14094 16.7344C4.47214 16.1178 3.04734 14.9784 2.07904 13.4859C1.11074 11.9935 0.650828 10.228 0.767883 8.45279C0.884939 6.67759 1.5727 4.9878 2.72858 3.63541C3.88447 2.28303 5.44655 1.34052 7.18186 0.948448C8.91716 0.556378 10.7327 0.735756 12.3578 1.45983C12.7361 1.62841 12.9062 2.07179 12.7376 2.45015C12.569 2.8285 12.1256 2.99855 11.7473 2.82997Z" clip-rule="evenodd"/><path fill="#30507F" fill-rule="evenodd" d="M17.0301 2.4693C17.3231 2.76205 17.3233 3.23692 17.0306 3.52996L9.5306 11.0375C9.38997 11.1782 9.19917 11.2573 9.00019 11.2574C8.80122 11.2574 8.61037 11.1784 8.46967 11.0377L6.21967 8.78773C5.92678 8.49484 5.92678 8.01996 6.21967 7.72707C6.51257 7.43418 6.98744 7.43418 7.28033 7.72707L8.99974 9.44647L15.9694 2.46983C16.2622 2.17679 16.737 2.17656 17.0301 2.4693Z" clip-rule="evenodd"/></svg>