<svg xmlns="http://www.w3.org/2000/svg" xmlns:xlink="http://www.w3.org/1999/xlink" id="Layer_1" x="0" y="0" version="1.1" viewBox="0 0 64 64" xml:space="preserve" style="enable-background:new 0 0 64 64"><g><path d="M32,16.9c-8.3,0-15,6.8-15,15.1c0,8.3,6.7,15.1,15,15.1c8.3,0,15-6.8,15-15.1C47,23.7,40.3,16.9,32,16.9z M32,42.1 c-5.5,0-10-4.5-10-10.1s4.5-10.1,10-10.1c5.5,0,10,4.5,10,10.1S37.5,42.1,32,42.1z"/><path d="M47,10c-2.8,0-5,2.3-5,5s2.2,5,5,5c2.8,0,5-2.3,5-5S49.8,10,47,10z"/><path d="M48,0H16C7.2,0,0,7.2,0,16v31.7C0,56.7,7.3,64,16.3,64h31.5C56.7,64,64,56.7,64,47.7V16C64,7.2,56.8,0,48,0z M59,47.7 C59,53.9,54,59,47.8,59H16.3C10.1,59,5,54,5,47.8V16C5,9.9,9.9,5,16,5H48c6.1,0,11,4.9,11,11V47.7z"/></g></svg>