<svg xmlns="http://www.w3.org/2000/svg" xmlns:xlink="http://www.w3.org/1999/xlink" id="Layer_1" x="0" y="0" version="1.1" viewBox="0 0 64 64" xml:space="preserve" style="enable-background:new 0 0 64 64"><g><g><path d="M14.5,62.8H5.6c-3.1,0-5.6-2.5-5.6-5.5V27.9c0-3,2.5-5.5,5.6-5.5h8.9c3,0,5.6,2.5,5.6,5.5v29.4 C20.2,60.3,17.6,62.8,14.5,62.8z M5.6,27.4c-0.3,0-0.6,0.2-0.6,0.5v29.4c0,0.2,0.2,0.5,0.6,0.5h8.9c0.3,0,0.6-0.2,0.6-0.5V27.9 c0-0.2-0.3-0.5-0.6-0.5H5.6z"/></g><g><path d="M58.4,62.8h-8.9c-3.1,0-5.6-2.5-5.6-5.5V45.2c0-0.6-0.5-1-1.1-1c-0.6,0-1.1,0.5-1.1,1v12c0,3-2.5,5.5-5.6,5.5h-8.9 c-3.1,0-5.6-2.5-5.6-5.5V27.9c0-3,2.5-5.5,5.6-5.5H36c1.9,0,3.5,0.9,4.5,2.3c0.4-0.2,0.8-0.4,1.1-0.6c3.1-1.4,6.6-1.9,9.8-1.5l0,0 c7,0.8,12.3,6.7,12.5,13.6l0,21.2C64,60.3,61.5,62.8,58.4,62.8z M42.7,39.2c3.4,0,6.1,2.7,6.1,6v12.1c0,0.2,0.2,0.5,0.6,0.5h8.9 c0.3,0,0.6-0.2,0.6-0.5V36.2c-0.1-4.3-3.7-8.1-8.1-8.6c-2.3-0.3-4.9,0.1-7.2,1.1c-1.1,0.5-2.2,1.1-3.2,1.8l-3.9,2.8v-5.4 c0-0.2-0.2-0.5-0.6-0.5h-8.9c-0.3,0-0.6,0.2-0.6,0.5v29.4c0,0.2,0.2,0.5,0.6,0.5H36c0.3,0,0.6-0.2,0.6-0.5v-12 C36.6,41.9,39.3,39.2,42.7,39.2z"/></g><g><path d="M10.7,21.9c-5.8,0-10.6-4.6-10.6-10.4S4.8,1.2,10.7,1.2s10.6,4.6,10.6,10.4S16.5,21.9,10.7,21.9z M10.7,6.2 c-3.1,0-5.6,2.4-5.6,5.4s2.5,5.4,5.6,5.4s5.6-2.4,5.6-5.4C16.3,8.5,13.8,6.2,10.7,6.2z"/></g></g></svg>