<svg xmlns="http://www.w3.org/2000/svg" xmlns:xlink="http://www.w3.org/1999/xlink" id="Layer_1" x="0" y="0" version="1.1" viewBox="0 0 64 64" xml:space="preserve" style="enable-background:new 0 0 64 64"><style type="text/css">.st0{fill:none;stroke:#000;stroke-miterlimit:10}</style><g><path d="M22.2,58c-5.4,0-13.3-1-20-5.8c-2-1.4-2.8-4.1-1.8-6.4c0.9-2.3,3.4-3.6,5.9-3.1l0,0c0,0,1,0.2,2.5,0.1 c-1-1.4-1.9-3-2.5-4.7c-0.2-0.6-0.3-1.1-0.3-1.7c-2.5-2.9-3.8-6.5-3.8-10.5c0-0.9,0.2-1.8,0.7-2.5C2,20,1.7,15.5,4.6,10.7 C5.5,9.3,7,8.3,8.7,8.1c0.1,0,0.1,0,0.2,0c1.8-0.1,3.4,0.6,4.5,1.8l0,0c0.7,0.7,6.1,6.4,13,8.3C28,11.2,34.4,6,42.1,6 c3.4,0,6.7,1,9.3,2.9c0.7-0.2,1.6-0.5,2.4-1.1c1.6-1.1,3.7-1.3,5.4-0.4c1.7,0.8,2.9,2.4,3.1,4.3c0,0.1,0,0.2,0,0.3 c0,0.1,0,0.3,0,0.6c1.4,1.4,1.9,3.4,1.3,5.2c-0.5,1.7-2.1,3.8-5.4,6.8C58,32,54.5,51.8,29.6,57.4C29.4,57.4,26.4,58,22.2,58z M5.4,47.6c-0.2,0-0.3,0.1-0.3,0.1c0,0,0,0.1,0,0.1C5,47.9,5,48,5.1,48.1c5.6,4.1,12.4,4.9,17.1,4.9c3.7,0,6.3-0.5,6.4-0.5 c22.6-5.1,24.8-23.6,24.9-29.2c0-0.7,0.3-1.4,0.8-1.8c4.2-3.7,4.7-5,4.7-5.1c0.1-0.2-0.1-0.4-0.2-0.4c0,0-0.1-0.1-0.1-0.1 c-1.1-0.5-1.7-1.8-1.3-3c0.1-0.3,0.1-0.5,0.1-0.7c0-0.1-0.1-0.2-0.2-0.3c-0.1,0-0.1-0.1-0.2-0.1c-0.1,0-0.2,0-0.4,0.1 c-2.2,1.5-4.5,2-5.6,2.1c-0.7,0.1-1.3-0.1-1.8-0.5c-1.9-1.6-4.5-2.4-7.1-2.4c-6.1,0-11,4.5-11.2,10.4c0,0.7-0.3,1.4-0.9,1.8 c-0.5,0.5-1.2,0.7-1.9,0.6c-9.5-1.3-17-8.9-18.5-10.4c0,0-0.1-0.1-0.1-0.1c-0.1-0.1-0.3-0.1-0.4-0.1c-0.2,0-0.3,0.2-0.4,0.3 c-1.8,3-2,6.2-0.7,9.4c0.4,1,0.2,2.2-0.7,2.9c-0.1,0.1-0.2,0.2-0.2,0.2c0,3.2,1,5.8,3.2,7.8c0.7,0.7,0.9,1.6,0.7,2.5 c0,0.1,0,0.2,0,0.3c0.8,2.5,2.4,4.5,4.6,5.8c0.8,0.5,1.3,1.4,1.2,2.4c-0.1,1-0.8,1.8-1.7,2.1c-4.6,1.5-9.5,0.8-9.7,0.7 C5.5,47.6,5.4,47.6,5.4,47.6z M58.5,15.7C58.5,15.7,58.5,15.7,58.5,15.7C58.5,15.7,58.5,15.7,58.5,15.7z"/></g><path d="M-5.7,0.9L-5.7,0.9L-5.7,0.9z" class="st0"/><path d="M32,32L32,32L32,32z" class="st0"/></svg>