<svg width="32" height="32" viewBox="0 0 32 32" fill="none" xmlns="http://www.w3.org/2000/svg">
<path d="M30.6667 7.99992V2.66659C30.6667 2.31296 30.5262 1.97382 30.2761 1.72378C30.0261 1.47373 29.687 1.33325 29.3333 1.33325H2.66667C2.31305 1.33325 1.97391 1.47373 1.72386 1.72378C1.47381 1.97382 1.33334 2.31296 1.33334 2.66659V7.99992H30.6667Z" fill="#0050AF"/>
<path d="M1.33334 10.6665V29.3332C1.33334 29.6868 1.47381 30.0259 1.72386 30.276C1.97391 30.526 2.31305 30.6665 2.66667 30.6665H9.33334V10.6665H1.33334Z" fill="#808080" fill-opacity="0.25"/>
<path d="M12 30.6665H29.3333C29.687 30.6665 30.0261 30.526 30.2761 30.276C30.5262 30.0259 30.6667 29.6868 30.6667 29.3332V10.6665H12V30.6665Z" fill="#979797"/>
</svg>
