<svg xmlns="http://www.w3.org/2000/svg" width="32" height="32" fill="none" viewBox="0 0 32 32"><path fill="gray" fill-opacity=".25" d="M28 32.0001H16C15.6464 32.0001 15.3073 31.8596 15.0572 31.6096C14.8072 31.3595 14.6667 31.0204 14.6667 30.6667V28.0001C14.6667 27.6465 14.8072 27.3073 15.0572 27.0573C15.3073 26.8072 15.6464 26.6667 16 26.6667H28C28.3536 26.6667 28.6928 26.8072 28.9428 27.0573C29.1929 27.3073 29.3334 27.6465 29.3334 28.0001V30.6667C29.3334 31.0204 29.1929 31.3595 28.9428 31.6096C28.6928 31.8596 28.3536 32.0001 28 32.0001Z"/><path fill="#0050AF" d="M28 0H4.00001C3.64638 0 3.30724 0.140475 3.0572 0.390523C2.80715 0.640572 2.66667 0.979711 2.66667 1.33333V4C2.66667 4.35362 2.80715 4.69276 3.0572 4.94281C3.30724 5.19286 3.64638 5.33333 4.00001 5.33333H28C28.3536 5.33333 28.6928 5.19286 28.9428 4.94281C29.1929 4.69276 29.3333 4.35362 29.3333 4V1.33333C29.3333 0.979711 29.1929 0.640572 28.9428 0.390523C28.6928 0.140475 28.3536 0 28 0Z"/><path fill="#979797" d="M28 8H4.00001C3.64638 8 3.30724 8.14047 3.0572 8.39052C2.80715 8.64057 2.66667 8.97971 2.66667 9.33333V22.6667C2.66667 23.0203 2.80715 23.3594 3.0572 23.6095C3.30724 23.8595 3.64638 24 4.00001 24H28C28.3536 24 28.6928 23.8595 28.9428 23.6095C29.1929 23.3594 29.3333 23.0203 29.3333 22.6667V9.33333C29.3333 8.97971 29.1929 8.64057 28.9428 8.39052C28.6928 8.14047 28.3536 8 28 8Z"/></svg>