<svg width="32" height="32" viewBox="0 0 32 32" fill="none" xmlns="http://www.w3.org/2000/svg">
<path d="M6.66668 1.33325H2.66668C2.31305 1.33325 1.97392 1.47373 1.72387 1.72378C1.47382 1.97382 1.33334 2.31296 1.33334 2.66659V29.3333C1.33334 29.6869 1.47382 30.026 1.72387 30.2761C1.97392 30.5261 2.31305 30.6666 2.66668 30.6666H6.66668V1.33325Z" fill="#808080" fill-opacity="0.25"/>
<path d="M9.33334 30.6666H22.6667V1.33325H9.33334V30.6666ZM16 25.3333C15.6464 25.3333 15.3072 25.1928 15.0572 24.9427C14.8072 24.6927 14.6667 24.3535 14.6667 23.9999C14.6667 23.6463 14.8072 23.3072 15.0572 23.0571C15.3072 22.8071 15.6464 22.6666 16 22.6666C16.3536 22.6666 16.6928 22.8071 16.9428 23.0571C17.1929 23.3072 17.3333 23.6463 17.3333 23.9999C17.3333 24.3535 17.1929 24.6927 16.9428 24.9427C16.6928 25.1928 16.3536 25.3333 16 25.3333ZM16 6.66658C16.3536 6.66658 16.6928 6.80706 16.9428 7.05711C17.1929 7.30716 17.3333 7.6463 17.3333 7.99992C17.3333 8.35354 17.1929 8.69268 16.9428 8.94273C16.6928 9.19278 16.3536 9.33325 16 9.33325C15.6464 9.33325 15.3072 9.19278 15.0572 8.94273C14.8072 8.69268 14.6667 8.35354 14.6667 7.99992C14.6667 7.6463 14.8072 7.30716 15.0572 7.05711C15.3072 6.80706 15.6464 6.66658 16 6.66658ZM16 14.6666C16.3536 14.6666 16.6928 14.8071 16.9428 15.0571C17.1929 15.3072 17.3333 15.6463 17.3333 15.9999C17.3333 16.3535 17.1929 16.6927 16.9428 16.9427C16.6928 17.1928 16.3536 17.3333 16 17.3333C15.6464 17.3333 15.3072 17.1928 15.0572 16.9427C14.8072 16.6927 14.6667 16.3535 14.6667 15.9999C14.6667 15.6463 14.8072 15.3072 15.0572 15.0571C15.3072 14.8071 15.6464 14.6666 16 14.6666Z" fill="#979797"/>
<path d="M29.3333 1.33325H25.3333V30.6666H29.3333C29.687 30.6666 30.0261 30.5261 30.2762 30.2761C30.5262 30.026 30.6667 29.6869 30.6667 29.3333V2.66659C30.6667 2.31296 30.5262 1.97382 30.2762 1.72378C30.0261 1.47373 29.687 1.33325 29.3333 1.33325Z" fill="#0050AF"/>
</svg>
