<svg xmlns="http://www.w3.org/2000/svg" width="32" height="32" fill="none" viewBox="0 0 32 32"><path fill="gray" fill-opacity=".25" d="M31.4667 1.59992C31.2 1.33325 30.6667 1.33325 30.2667 1.33325L22.6667 3.59992V30.3999L31.0667 27.9999C31.6 27.8666 32 27.3333 32 26.6666V2.66659C32 2.26659 31.8667 1.86659 31.4667 1.59992Z"/><path fill="#0050AF" d="M20 3.59985L12 1.59985V28.3999L20 30.3999V3.59985Z"/><path fill="#979797" d="M9.33333 1.59985L0.933334 3.99985C0.400001 4.26652 0 4.79985 0 5.33319V29.3332C0 29.7332 0.133333 30.1332 0.533333 30.3999C0.799999 30.5332 1.06667 30.6665 1.33333 30.6665H1.73333L9.33333 28.3999V1.59985Z"/></svg>